<svg width="390" height="247" viewBox="0 0 390 247" fill="none" xmlns="http://www.w3.org/2000/svg">
<g clip-path="url(#clip0_219_2187)">
<path d="M81.5396 15.8999H70.2246V20.4249H81.5396V15.8999Z" fill="#B47230"/>
<path d="M83.31 21.845H22.5L21 61.445H85.215L83.305 21.84L83.31 21.845ZM48.225 54.66L41.65 52.2L38.48 50.275L35.21 41.65L37.43 34.375L42.67 30.59L48.22 28.64L56.63 31.72L59.75 36.295L61.235 41.65L59.54 47.03L57.52 50.755L55.065 52.79L48.22 54.67L48.225 54.66ZM75.88 31.035H66.57L66.925 25.625L75.88 26.225V31.035Z" fill="#B47230"/>
<path d="M58.1945 41.1449L57.7245 46.8449L51.1095 51.5949L42.3045 50.1049L38.2595 45.6399L38.0195 37.2049L42.7295 31.9349L47.7245 30.6749L56.0395 34.7799L58.1945 41.1449Z" fill="#B47230"/>
<path d="M106.3 0.54L96.9598 10.025L87.0548 0L93.0048 12.56L82.5098 13.52L92.0548 16.715L84.6348 25.545L94.2198 21.965L101.305 34L100.965 19.12L111.475 17.745L103.065 13.185L106.3 0.54Z" fill="#B47230"/>
</g>
<g clip-path="url(#clip1_219_2187)">
<path d="M162 56.4949V90.2649H206.13L205.28 68.3399L220.095 79.2249L218.01 56.4949L184.915 57.9049L179.82 50.6949H162V56.4949Z" fill="#B47230"/>
<path d="M208.675 73.7899V97.5549L214.13 90.2649L221.65 102.74L225.33 100.06L217.165 88.4999L226.215 87.5099L208.675 73.7899Z" fill="#B47230"/>
<path d="M164.119 49.1049V46.1699H182.934L188.874 53.0649L217.444 51.0999V54.6749L186.609 55.8949L181.234 49.2449L164.119 49.1049Z" fill="#B47230"/>
<path d="M167.375 44.435V42H186.185L192.13 48.9L217.445 47.11V49.175L189.865 51.225L184.49 44.58L167.375 44.435Z" fill="#B47230"/>
</g>
<g clip-path="url(#clip2_219_2187)">
<path d="M195.78 172.535H206.63L204.895 194.09L205.33 199.585L203.74 203.06H199.54L183.63 210.58L179.725 208.41L179 203.345L180.88 198.865L195.49 193.51L195.78 172.535Z" fill="#B47230"/>
<path d="M213.165 194.84L211.345 206.905L209.43 210.58L201.63 213.315L197.39 215.86V219.54L200.215 220.955L208.045 219.54L215.02 216.9L218.06 215.105V212.09L217.38 209.92L220.02 196.34L213.165 194.84Z" fill="#B47230"/>
<path d="M230.545 196.905L234.695 195.775L237.255 192.005L235.86 188.255L234.855 188.18L228.705 192.94V195.925L230.545 196.905Z" fill="#B47230"/>
<path d="M221.42 202.78C221.42 202.78 228.84 213.39 229.265 213.67C229.335 213.715 229.785 213.735 230.48 213.735C233.965 213.735 243.69 213.245 243.69 213.245L247.935 219.09L246.52 220.175L255.43 234.745L261.655 229.465L251.96 217.35L250.48 217.775L246.66 212.4L252.74 207.45L255.145 200.07L254.58 190.9L248.075 182.98L236.9 181.05L229.545 182.555L221.415 189.06V202.78H221.42ZM225.705 191.465L233.935 185.1L243.13 185.805L249.635 190.05L251.965 198.82L248.365 207.305L241.545 209.85H232.385L225.71 202.655V191.46L225.705 191.465Z" fill="#B47230"/>
<path d="M218.42 189.06V187.62L219.545 186.72L225.935 181.605L222.06 179.18L218.455 159L210.18 159.945L212.82 181.465L212.11 184.65L212.82 188.045L214.56 189.45L217.485 189.93L218.42 190.43V189.06Z" fill="#B47230"/>
</g>
<path d="M181.679 177.79C181.064 167.944 176.85 159.846 168.328 154.537C163.466 151.508 151.477 145.426 145.389 148.31C141.728 150.044 136.5 155.368 136.5 158.883C136.5 164.5 144.659 171.014 145.389 167C147.076 157.721 124.163 146.37 119 150.5C115.646 153.183 113.216 157.493 112.145 161.661" stroke="white" stroke-width="3" stroke-linecap="square" stroke-dasharray="2 8"/>
<g clip-path="url(#clip3_219_2187)">
<path d="M334.12 94.9L344.025 95.725L343.235 116.455L343.67 121.955L342.075 125.425L337.99 126.75L325.005 132.055L321.565 129.465L320.34 126.215L322.255 122.55L333.865 116.7L334.12 94.9Z" fill="#B47230"/>
<path d="M301.495 142.05L361.47 141.06L368.685 143.695V149.01L366.56 153.555H361.185L297.44 154.26L294 150.31V145.855L297.535 142.05H301.495Z" fill="#B47230"/>
<path d="M301.54 143.52L335.495 143.05L336.225 151.92L298.07 152.27L295.125 149.44V146.245L298.15 143.52H301.54Z" fill="#B47230"/>
<mask id="mask0_219_2187" style="mask-type:luminance" maskUnits="userSpaceOnUse" x="295" y="143" width="42" height="10">
<path d="M301.539 143.52L335.494 143.05L336.224 151.92L298.069 152.27L295.124 149.44V146.245L298.149 143.52H301.539Z" fill="white"/>
</mask>
<g mask="url(#mask0_219_2187)">
<path d="M300.574 141.645L294.364 153.44L298.799 154.06L304.609 141.26L300.574 141.645Z" fill="white"/>
<path d="M308.544 141.79L301.069 152.885L305.414 153.955L312.599 141.815L308.544 141.79Z" fill="white"/>
<path d="M315.069 141.645L308.859 153.44L313.294 154.06L319.104 141.26L315.069 141.645Z" fill="white"/>
<path d="M320.724 141.57L315.784 153.91L320.264 154.095L324.694 140.795L320.724 141.57Z" fill="white"/>
<path d="M328.139 141.645L321.924 153.44L326.364 154.06L332.169 141.26L328.139 141.645Z" fill="white"/>
<path d="M335.859 142.805L327.989 153.645L332.289 154.855L339.909 142.97L335.859 142.805Z" fill="white"/>
</g>
<path d="M354.519 138.525H310.219L309.994 85.31L356.239 83L354.519 138.525ZM311.709 137.025H353.064L354.689 84.58L311.494 86.74L311.709 137.025Z" fill="#B47230"/>
</g>
<path d="M76.5 81C83.5 93 106.988 100.005 115.908 95.4417C119.237 93.7383 125.129 89.0326 123.614 83.7928C122.108 78.5857 117.5 74 111 78C104.5 82 115.092 101.102 122.718 103.148C131.081 105.392 140.005 104.017 148.256 101.983" stroke="white" stroke-width="3" stroke-linecap="square" stroke-dasharray="2 8"/>
<path d="M222.002 30.208C229.945 22.2651 238.372 17.4919 250.049 18.2903C260.546 19.0081 266.858 22.6135 269.583 33.2546C270.818 38.0772 271.454 42.6467 268.956 47.1437C267.483 49.7948 267.164 44.6638 267.164 43.873C267.164 34.0186 287.298 34.5549 293.329 37.4662C305.278 43.2347 311.519 62.1999 311.519 74.5633" stroke="white" stroke-width="3" stroke-linecap="square" stroke-dasharray="2 8"/>
<path d="M332.487 167.306C331.839 173.781 332.454 181.238 327.155 187.378C321.455 193.983 314.982 196.499 306.321 195.443C301.438 194.847 295.089 195.55 294.673 190.649C294.398 187.411 295.757 183.063 298.974 183.525C301.392 183.872 302.827 188.453 302.827 188.453C302.827 188.453 304.689 196.839 302.289 200.371C296.532 208.847 281.58 212.119 272.809 206.823" stroke="white" stroke-width="3" stroke-linecap="square" stroke-dasharray="2 8"/>
<g clip-path="url(#clip4_219_2187)">
<path d="M70.9297 196.425L70.8447 194.21L73.0547 194.025L73.1797 195.52L72.3997 195.585L72.4297 196.37L70.9297 196.425Z" fill="#B47230"/>
<path d="M72.7799 220.5L71.2849 220.38L71.5199 217.38L73.0149 217.5L72.7799 220.5ZM71.6199 214.47L71.5049 211.465L73.0049 211.405L73.1199 214.41L71.6199 214.47ZM71.3899 208.455L71.2749 205.45L72.7749 205.39L72.8899 208.395L71.3899 208.455ZM71.1599 202.44L71.0449 199.435L72.5449 199.375L72.6599 202.38L71.1599 202.44Z" fill="#B47230"/>
<path d="M74.7696 225.775L73.0247 225.215L72.2646 223.55L73.6297 222.925L74.1147 223.99L75.2296 224.35L74.7696 225.775Z" fill="#B47230"/>
<path d="M86.13 230.2L83.295 229.04L83.865 227.65L86.7 228.81L86.13 230.2ZM80.46 227.88L77.625 226.72L78.195 225.33L81.03 226.49L80.46 227.88Z" fill="#B47230"/>
<path d="M90.7497 232.085L88.9697 231.36L89.5347 229.97L90.5297 230.375L91.3897 229.73L92.2897 230.93L90.7497 232.085Z" fill="#B47230"/>
<path d="M50.155 193.13L60.06 193.955L59.27 214.685L59.705 220.185L58.11 223.655L54.025 224.975L41.04 230.285L37.6 227.69L36.375 224.445L38.29 220.78L49.905 214.925L50.155 193.13Z" fill="#B47230"/>
<path d="M85.2048 191.8L75.2998 192.625L76.0898 213.355L75.6548 218.855L77.2448 222.325L81.3348 223.645L94.3148 228.955L97.7598 226.365L98.9848 223.115L97.0648 219.45L85.4548 213.6L85.2048 191.8Z" fill="#B47230"/>
<path d="M76.7146 231.18L67.3096 244.85L54.2246 231.18" stroke="#B47230" stroke-width="2.5" stroke-miterlimit="10"/>
<path d="M40.6502 212.155L27.3252 195.63L30.0402 179.595L46.1652 170.43L63.1402 179.595L67.3102 187.99L80.9602 173.985L104.3 180.99V205.695L96.6202 212.155" stroke="#B47230" stroke-width="2.5" stroke-miterlimit="10"/>
</g>
<defs>
<clipPath id="clip0_219_2187">
<rect width="90.475" height="61.445" fill="white" transform="translate(21)"/>
</clipPath>
<clipPath id="clip1_219_2187">
<rect width="64.215" height="60.74" fill="white" transform="translate(162 42)"/>
</clipPath>
<clipPath id="clip2_219_2187">
<rect width="82.655" height="75.745" fill="white" transform="translate(179 159)"/>
</clipPath>
<clipPath id="clip3_219_2187">
<rect width="74.685" height="71.855" fill="white" transform="translate(294 83)"/>
</clipPath>
<clipPath id="clip4_219_2187">
<rect width="79.55" height="77.825" fill="white" transform="translate(26 169)"/>
</clipPath>
</defs>
</svg>
