<svg width="80" height="78" viewBox="0 0 80 78" fill="none" xmlns="http://www.w3.org/2000/svg">
<g clip-path="url(#clip0_254_4726)">
<path d="M44.9297 27.425L44.8447 25.21L47.0547 25.025L47.1797 26.52L46.3997 26.585L46.4297 27.37L44.9297 27.425Z" fill="#4142F4"/>
<path d="M46.7799 51.5L45.2849 51.38L45.5199 48.38L47.0149 48.5L46.7799 51.5ZM45.6199 45.47L45.5049 42.465L47.0049 42.405L47.1199 45.41L45.6199 45.47ZM45.3899 39.455L45.2749 36.45L46.7749 36.39L46.8899 39.395L45.3899 39.455ZM45.1599 33.44L45.0449 30.435L46.5449 30.375L46.6599 33.38L45.1599 33.44Z" fill="#4142F4"/>
<path d="M48.7696 56.775L47.0247 56.215L46.2646 54.55L47.6297 53.925L48.1147 54.99L49.2296 55.35L48.7696 56.775Z" fill="#4142F4"/>
<path d="M60.13 61.2001L57.295 60.0401L57.865 58.6501L60.7 59.8101L60.13 61.2001ZM54.46 58.8801L51.625 57.7201L52.195 56.3301L55.03 57.4901L54.46 58.8801Z" fill="#4142F4"/>
<path d="M64.7497 63.085L62.9697 62.36L63.5347 60.97L64.5297 61.375L65.3897 60.73L66.2897 61.93L64.7497 63.085Z" fill="#4142F4"/>
<path d="M24.155 24.13L34.06 24.955L33.27 45.685L33.705 51.185L32.11 54.655L28.025 55.975L15.04 61.285L11.6 58.69L10.375 55.445L12.29 51.78L23.905 45.925L24.155 24.13Z" fill="#4142F4"/>
<path d="M59.2048 22.8L49.2998 23.625L50.0898 44.355L49.6548 49.855L51.2448 53.3251L55.3348 54.6451L68.3148 59.9551L71.7598 57.3651L72.9848 54.1151L71.0648 50.4501L59.4548 44.6L59.2048 22.8Z" fill="#4142F4"/>
<path d="M50.7146 62.1801L41.3096 75.8501L28.2246 62.1801" stroke="#4142F4" stroke-width="2.5" stroke-miterlimit="10"/>
<path d="M14.6502 43.1551L1.3252 26.6301L4.0402 10.5951L20.1652 1.43005L37.1402 10.5951L41.3102 18.9901L54.9602 4.98505L78.3002 11.9901V36.6951L70.6202 43.1551" stroke="#4142F4" stroke-width="2.5" stroke-miterlimit="10"/>
</g>
<defs>
<clipPath id="clip0_254_4726">
<rect width="79.55" height="77.825" fill="white"/>
</clipPath>
</defs>
</svg>
