<svg width="75" height="72" viewBox="0 0 75 72" fill="none" xmlns="http://www.w3.org/2000/svg">
<g clip-path="url(#clip0_254_4710)">
<path d="M40.1198 11.9L50.0248 12.725L49.2348 33.455L49.6698 38.955L48.0748 42.425L43.9898 43.75L31.0048 49.055L27.5648 46.465L26.3398 43.215L28.2548 39.55L39.8648 33.7L40.1198 11.9Z" fill="#4142F4"/>
<path d="M7.495 59.0499L67.47 58.0599L74.685 60.6949V66.0099L72.56 70.5549H67.185L3.44 71.2599L0 67.3099V62.8549L3.535 59.0499H7.495Z" fill="#4142F4"/>
<path d="M7.54 60.5199L41.495 60.0499L42.225 68.9199L4.07 69.2699L1.125 66.4399V63.2449L4.15 60.5199H7.54Z" fill="#4142F4"/>
<mask id="mask0_254_4710" style="mask-type:luminance" maskUnits="userSpaceOnUse" x="1" y="60" width="42" height="10">
<path d="M7.53902 60.5197L41.494 60.0497L42.224 68.9197L4.06902 69.2697L1.12402 66.4397V63.2447L4.14902 60.5197H7.53902Z" fill="white"/>
</mask>
<g mask="url(#mask0_254_4710)">
<path d="M6.57426 58.645L0.364258 70.44L4.79926 71.06L10.6093 58.26L6.57426 58.645Z" fill="white"/>
<path d="M14.5443 58.79L7.06934 69.885L11.4143 70.955L18.5993 58.815L14.5443 58.79Z" fill="white"/>
<path d="M21.0694 58.645L14.8594 70.44L19.2944 71.06L25.1044 58.26L21.0694 58.645Z" fill="white"/>
<path d="M26.7242 58.57L21.7842 70.91L26.2642 71.095L30.6942 57.795L26.7242 58.57Z" fill="white"/>
<path d="M34.1388 58.645L27.9238 70.44L32.3638 71.0599L38.1688 58.2599L34.1388 58.645Z" fill="white"/>
<path d="M41.8593 59.805L33.9893 70.645L38.2893 71.855L45.9093 59.97L41.8593 59.805Z" fill="white"/>
</g>
<path d="M60.5191 55.525H16.2191L15.9941 2.31L62.2391 0L60.5191 55.525ZM17.7091 54.025H59.0641L60.6891 1.58L17.4941 3.74L17.7091 54.025Z" fill="#4142F4"/>
</g>
<defs>
<clipPath id="clip0_254_4710">
<rect width="74.685" height="71.855" fill="white"/>
</clipPath>
</defs>
</svg>
