<svg width="247" height="406" viewBox="0 0 247 406" fill="none" xmlns="http://www.w3.org/2000/svg">
<path d="M156.511 0.0593262L120.182 202.437L106.993 228.063L10.9868 330.184L0.115234 362.996L13.7635 398.166L45.2859 404.773L78.5171 392.709L175.384 317.622L201.935 300.959L216.719 280.55L220.197 245.316L212.204 210.493L246.511 15.9287L156.511 0.0593262Z" fill="#4142F4"/>
<path d="M157.279 42.0394L159.368 41.8526C159.182 43.6087 159.315 45.4211 161.05 45.727C162.206 45.9309 162.94 45.3818 163.158 44.1454C163.415 42.6896 162.811 41.8017 161.952 40.725L159.662 37.8536C158.75 36.7265 158.451 35.625 158.736 34.0097C159.154 31.6366 160.849 30.5372 163.182 30.9486C165.755 31.4022 166.756 32.9564 166.516 35.8339L164.51 36.0148C164.672 34.3983 164.552 32.9789 162.877 32.6836C161.76 32.4867 160.996 32.9689 160.789 34.1455C160.616 35.1227 160.817 35.7338 161.459 36.5255L163.769 39.4003C164.796 40.6917 165.639 42.321 165.284 44.3352C164.862 46.7282 162.99 47.8992 160.737 47.5018C157.925 47.006 156.946 44.8595 157.279 42.0394Z" fill="white"/>
<path d="M166.979 43.1946L168.059 37.0723C168.621 33.8815 170.116 32.171 173.386 32.7477C176.657 33.3244 177.452 35.4592 176.893 38.63L175.81 44.7723C175.251 47.9431 173.732 49.7932 170.482 49.2201C167.231 48.6469 166.413 46.4053 166.979 43.1946ZM173.452 44.85L174.701 37.7705C175.017 35.9757 174.872 34.8191 173.077 34.5026C171.282 34.1861 170.73 35.2197 170.413 37.0145L169.165 44.094C168.848 45.8888 168.98 47.1252 170.795 47.4452C172.609 47.7652 173.136 46.6448 173.452 44.85Z" fill="white"/>
<path d="M177.75 44.9704L178.756 39.2669C179.333 35.9964 180.626 34.0243 184.056 34.6291C187.068 35.1601 187.819 37.0814 187.305 39.993L187.08 41.2693L184.946 40.8931L185.147 39.7564C185.463 37.9616 185.641 36.7181 183.767 36.3876C181.892 36.057 181.441 37.3345 181.089 39.3288L179.96 45.7303C179.531 48.1632 179.929 49.0559 181.485 49.3302C183.3 49.6501 183.628 48.3715 183.965 46.457L184.176 45.2605L186.31 45.6367L186.099 46.8333C185.575 49.8047 184.323 51.6606 181.152 51.1015C177.722 50.4967 177.219 47.9817 177.75 44.9704Z" fill="white"/>
<path d="M190.254 35.866L192.507 36.2633L191.164 43.8813L196.217 36.9174L198.311 37.2866L193.864 43.8434L195.981 53.5313L193.787 53.1445L192.032 45.0214L190.665 46.7131L189.659 52.4166L187.406 52.0193L190.254 35.866Z" fill="white"/>
<path d="M200.125 37.6064L202.378 38.0038L199.815 52.5418L203.943 53.2697L203.658 54.885L197.277 53.7598L200.125 37.6064Z" fill="white"/>
<path d="M208.043 39.0024L214.305 40.1066L214.009 41.7817L210.001 41.075L209.059 46.4195L212.309 46.9927L212.028 48.5881L208.777 48.0149L207.733 53.9378L211.781 54.6516L211.496 56.2669L205.195 55.1558L208.043 39.0024Z" fill="white"/>
<path d="M213.632 51.9755L215.722 51.7887C215.535 53.5447 215.668 55.3571 217.403 55.663C218.56 55.867 219.294 55.3179 219.512 54.0814C219.769 52.6256 219.164 51.7377 218.306 50.661L216.015 47.7897C215.104 46.6625 214.805 45.5611 215.089 43.9457C215.508 41.5726 217.203 40.4732 219.536 40.8846C222.109 41.3382 223.109 42.8924 222.869 45.7699L220.863 45.9508C221.025 44.3344 220.905 42.915 219.23 42.6196C218.113 42.4227 217.35 42.9049 217.142 44.0815C216.97 45.0587 217.171 45.6698 217.812 46.4615L220.122 49.3364C221.149 50.6277 221.993 52.257 221.638 54.2712C221.216 56.6643 219.344 57.8352 217.09 57.4379C214.278 56.9421 213.3 54.7955 213.632 51.9755Z" fill="white"/>
<path d="M222.923 53.6141L225.013 53.4273C224.826 55.1834 224.959 56.9958 226.694 57.3017C227.851 57.5056 228.585 56.9565 228.803 55.7201C229.06 54.2643 228.455 53.3764 227.597 52.2997L225.306 49.4284C224.395 48.3012 224.096 47.1997 224.38 45.5844C224.799 43.2113 226.494 42.1119 228.827 42.5233C231.4 42.9769 232.4 44.5311 232.16 47.4086L230.154 47.5895C230.316 45.973 230.196 44.5537 228.521 44.2583C227.404 44.0614 226.641 44.5436 226.433 45.7202C226.261 46.6974 226.462 47.3085 227.103 48.1002L229.414 50.975C230.44 52.2664 231.284 53.8957 230.929 55.9099C230.507 58.3029 228.635 59.4739 226.381 59.0766C223.569 58.5807 222.591 56.4342 222.923 53.6141Z" fill="white"/>
<path d="M159.014 55.0322L160.549 55.303L163.244 66.8407L165.136 56.1118L167.011 56.4423L164.162 72.5956L162.726 72.3424L160.024 60.495L158.08 71.5231L156.165 71.1855L159.014 55.0322Z" fill="white"/>
<path d="M167.288 67.9241L168.367 61.8018C168.93 58.611 170.424 56.9005 173.695 57.4772C176.965 58.0539 177.761 60.1887 177.202 63.3595L176.119 69.5018C175.56 72.6726 174.041 74.5227 170.79 73.9495C167.54 73.3764 166.722 71.1348 167.288 67.9241ZM173.761 69.5795L175.009 62.5C175.326 60.7052 175.18 59.5486 173.385 59.2321C171.591 58.9156 171.038 59.9492 170.722 61.744L169.473 68.8235C169.157 70.6183 169.288 71.8547 171.103 72.1747C172.918 72.4947 173.445 71.3743 173.761 69.5795Z" fill="white"/>
<path d="M185.123 59.636L187.337 60.0263L187.878 73.6313L193.06 61.0355L195.254 61.4223L192.705 77.6284L190.89 77.3084L192.778 65.5506L187.979 76.795L186.702 76.5699L186.058 64.3656L183.811 76.0601L181.976 75.7366L185.123 59.636Z" fill="white"/>
<path d="M195.764 72.9453L196.844 66.823C197.407 63.6322 198.901 61.9217 202.171 62.4984C205.442 63.0751 206.238 65.2099 205.678 68.3808L204.595 74.523C204.036 77.6938 202.517 79.544 199.267 78.9708C196.016 78.3976 195.198 76.156 195.764 72.9453ZM202.238 74.6008L203.486 67.5212C203.802 65.7264 203.657 64.5698 201.862 64.2533C200.067 63.9369 199.515 64.9704 199.198 66.7652L197.95 73.8447C197.633 75.6396 197.765 76.8759 199.58 77.1959C201.395 77.5159 201.921 76.3956 202.238 74.6008Z" fill="white"/>
<path d="M208.77 63.8054L212.02 64.3786C215.251 64.9482 216.552 66.432 216.01 69.5031C215.676 71.3976 214.872 72.6951 213.352 72.9206L214.217 81.4215L212.044 81.0383L211.266 73.0874L209.511 72.778L208.175 80.3561L205.921 79.9587L208.77 63.8054ZM210.653 71.3139C212.548 71.6479 213.471 71.1938 213.837 69.1198C214.171 67.2253 213.789 66.3561 211.735 65.9939L210.738 65.8181L209.796 71.1627L210.653 71.3139Z" fill="white"/>
<path d="M219.119 65.6306L225.381 66.7348L225.086 68.4099L221.077 67.7031L220.135 73.0477L223.385 73.6209L223.104 75.2162L219.854 74.6431L218.809 80.566L222.857 81.2798L222.573 82.8951L216.271 81.7839L219.119 65.6306Z" fill="white"/>
<path d="M14.4922 335.881L62.9857 346.762L74.4751 387.178" stroke="white" stroke-width="1.35" stroke-miterlimit="10" stroke-linecap="round"/>
<path d="M208.639 220.612L166.407 244.578L181.089 303.199" stroke="white" stroke-width="1.35" stroke-miterlimit="10" stroke-linecap="round"/>
<path d="M153.966 81.6406L126.619 228.96L33.0171 330.346" stroke="white" stroke-width="1.35" stroke-miterlimit="10" stroke-linecap="round"/>
<path d="M167.285 85.2779L139.564 242.49L54.0812 334.061" stroke="white" stroke-width="1.35" stroke-miterlimit="10" stroke-linecap="round"/>
<path d="M180.043 86.2386L153.513 249.603L69.606 341.452" stroke="white" stroke-width="1.35" stroke-miterlimit="10" stroke-linecap="round"/>
<path d="M193.59 88.6277L169.23 226.782" stroke="white" stroke-width="1.35" stroke-miterlimit="10" stroke-linecap="round"/>
<path d="M206.664 92.2217L184.779 216.336" stroke="white" stroke-width="1.35" stroke-miterlimit="10" stroke-linecap="round"/>
<path d="M215.168 92.3386L194.698 208.43" stroke="white" stroke-width="1.35" stroke-miterlimit="10" stroke-linecap="round"/>
</svg>
