<svg width="623" height="1349" viewBox="0 0 623 1349" fill="none" xmlns="http://www.w3.org/2000/svg">
<g clip-path="url(#clip0_206_1024)">
<path d="M217.015 219.783L332.986 229.388L348.917 225.903L418.75 188.27L438.274 187.107L455.52 199.689L454.547 217.89L443.105 234.31L387.935 276.35L374.957 288.44L361.646 293.557L341.867 290.328L323.987 280.882L212.588 271.31L217.015 219.783Z" fill="#B47230"/>
<mask id="mask0_206_1024" style="mask-type:luminance" maskUnits="userSpaceOnUse" x="212" y="187" width="244" height="107">
<path d="M217.015 219.783L332.986 229.388L348.917 225.903L418.75 188.27L438.274 187.107L455.52 199.689L454.547 217.89L443.105 234.31L387.935 276.35L374.957 288.44L361.646 293.557L341.867 290.328L323.987 280.882L212.588 271.31L217.015 219.783Z" fill="white"/>
</mask>
<g mask="url(#mask0_206_1024)">
<path d="M418.751 188.27L418.269 220.424L443.106 234.31L449.674 236.14L461.057 214.772L457.998 189.779L435.511 181.34L418.751 188.27Z" fill="white"/>
<path d="M322.585 283.725L353.45 254.818L386.493 279.938L374.793 291.738L361.103 297.514L340.852 294.075L322.585 283.725Z" fill="white"/>
<path d="M230.814 275.172L235.514 220.476L241.112 220.957L236.413 275.653L230.814 275.172Z" fill="white"/>
<path d="M219.879 225.148L230.068 226.023" stroke="white" stroke-width="0.764016" stroke-miterlimit="10" stroke-linecap="round"/>
<path d="M220.119 222.347L230.308 223.222" stroke="white" stroke-width="0.764016" stroke-miterlimit="10" stroke-linecap="round"/>
<path d="M219.613 228.223L229.802 229.099" stroke="white" stroke-width="0.764016" stroke-miterlimit="10" stroke-linecap="round"/>
<path d="M219.332 231.516L229.521 232.391" stroke="white" stroke-width="0.764016" stroke-miterlimit="10" stroke-linecap="round"/>
<path d="M219.055 234.731L229.243 235.607" stroke="white" stroke-width="0.764016" stroke-miterlimit="10" stroke-linecap="round"/>
<path d="M218.787 237.853L228.976 238.728" stroke="white" stroke-width="0.764016" stroke-miterlimit="10" stroke-linecap="round"/>
<path d="M218.537 240.757L228.726 241.632" stroke="white" stroke-width="0.764016" stroke-miterlimit="10" stroke-linecap="round"/>
<path d="M218.287 243.665L228.476 244.54" stroke="white" stroke-width="0.764016" stroke-miterlimit="10" stroke-linecap="round"/>
<path d="M217.973 247.326L228.161 248.201" stroke="white" stroke-width="0.764016" stroke-miterlimit="10" stroke-linecap="round"/>
<path d="M217.723 250.234L227.911 251.109" stroke="white" stroke-width="0.764016" stroke-miterlimit="10" stroke-linecap="round"/>
<path d="M217.463 253.248L227.652 254.124" stroke="white" stroke-width="0.764016" stroke-miterlimit="10" stroke-linecap="round"/>
<path d="M217.205 256.262L227.394 257.138" stroke="white" stroke-width="0.764016" stroke-miterlimit="10" stroke-linecap="round"/>
<path d="M216.891 259.924L227.079 260.799" stroke="white" stroke-width="0.764016" stroke-miterlimit="10" stroke-linecap="round"/>
<path d="M216.65 262.721L226.839 263.597" stroke="white" stroke-width="0.764016" stroke-miterlimit="10" stroke-linecap="round"/>
<path d="M216.354 266.17L226.542 267.045" stroke="white" stroke-width="0.764016" stroke-miterlimit="10" stroke-linecap="round"/>
<path d="M216.094 269.184L226.283 270.06" stroke="white" stroke-width="0.764016" stroke-miterlimit="10" stroke-linecap="round"/>
<path d="M278.331 279.255L283.031 224.559L288.63 225.04L283.93 279.736L278.331 279.255Z" fill="white"/>
<path d="M243.589 276.27L248.289 221.573L276.332 223.983L271.632 278.68L243.589 276.27Z" fill="white"/>
</g>
</g>
<g clip-path="url(#clip1_206_1024)">
<path d="M186.921 283.198L128.426 383.795L116.451 394.865L45.6249 430.594L33.4938 445.936L33.9447 467.281L49.4277 476.9L69.4407 476.915L135.489 455.733L152.831 452.009L164.645 444.022L173.317 425.954L175.803 405.886L231.708 309.056L186.921 283.198Z" fill="#B47230"/>
<mask id="mask1_206_1024" style="mask-type:luminance" maskUnits="userSpaceOnUse" x="33" y="283" width="199" height="194">
<path d="M186.921 283.198L128.426 383.795L116.451 394.865L45.6249 430.594L33.4938 445.936L33.9447 467.281L49.4277 476.9L69.4407 476.915L135.489 455.733L152.831 452.009L164.645 444.022L173.317 425.954L175.803 405.886L231.708 309.056L186.921 283.198Z" fill="white"/>
</mask>
<g mask="url(#mask1_206_1024)">
<path d="M189.324 289.416L186.23 294.775" stroke="white" stroke-width="0.764016" stroke-miterlimit="10" stroke-linecap="round"/>
<path d="M186.891 288.01L183.796 293.37" stroke="white" stroke-width="0.764016" stroke-miterlimit="10" stroke-linecap="round"/>
<path d="M191.998 290.959L188.904 296.319" stroke="white" stroke-width="0.764016" stroke-miterlimit="10" stroke-linecap="round"/>
<path d="M194.855 292.61L191.761 297.969" stroke="white" stroke-width="0.764016" stroke-miterlimit="10" stroke-linecap="round"/>
<path d="M197.654 294.225L194.56 299.585" stroke="white" stroke-width="0.764016" stroke-miterlimit="10" stroke-linecap="round"/>
<path d="M200.365 295.79L197.271 301.149" stroke="white" stroke-width="0.764016" stroke-miterlimit="10" stroke-linecap="round"/>
<path d="M202.893 297.249L199.798 302.608" stroke="white" stroke-width="0.764016" stroke-miterlimit="10" stroke-linecap="round"/>
<path d="M205.42 298.708L202.326 304.068" stroke="white" stroke-width="0.764016" stroke-miterlimit="10" stroke-linecap="round"/>
<path d="M208.602 300.546L205.507 305.905" stroke="white" stroke-width="0.764016" stroke-miterlimit="10" stroke-linecap="round"/>
<path d="M211.129 302.005L208.035 307.364" stroke="white" stroke-width="0.764016" stroke-miterlimit="10" stroke-linecap="round"/>
<path d="M213.75 303.518L210.656 308.877" stroke="white" stroke-width="0.764016" stroke-miterlimit="10" stroke-linecap="round"/>
<path d="M216.369 305.031L213.275 310.39" stroke="white" stroke-width="0.764016" stroke-miterlimit="10" stroke-linecap="round"/>
<path d="M219.553 306.868L216.458 312.227" stroke="white" stroke-width="0.764016" stroke-miterlimit="10" stroke-linecap="round"/>
<path d="M221.984 308.272L218.89 313.631" stroke="white" stroke-width="0.764016" stroke-miterlimit="10" stroke-linecap="round"/>
<path d="M224.979 310L221.884 315.36" stroke="white" stroke-width="0.764016" stroke-miterlimit="10" stroke-linecap="round"/>
<path d="M227.598 311.513L224.503 316.873" stroke="white" stroke-width="0.764016" stroke-miterlimit="10" stroke-linecap="round"/>
<path d="M219.223 320.396L173.582 399.448" stroke="white" stroke-width="0.764016" stroke-miterlimit="10" stroke-linecap="round"/>
<path d="M221.658 321.802L176.018 400.853" stroke="white" stroke-width="0.764016" stroke-miterlimit="10" stroke-linecap="round"/>
<path d="M216.551 318.853L170.91 397.904" stroke="white" stroke-width="0.764016" stroke-miterlimit="10" stroke-linecap="round"/>
<path d="M213.691 317.203L168.051 396.254" stroke="white" stroke-width="0.764016" stroke-miterlimit="10" stroke-linecap="round"/>
<path d="M210.893 315.587L165.252 394.638" stroke="white" stroke-width="0.764016" stroke-miterlimit="10" stroke-linecap="round"/>
<path d="M208.184 314.022L162.543 393.074" stroke="white" stroke-width="0.764016" stroke-miterlimit="10" stroke-linecap="round"/>
<path d="M205.656 312.563L160.016 391.614" stroke="white" stroke-width="0.764016" stroke-miterlimit="10" stroke-linecap="round"/>
<path d="M203.129 311.104L157.489 390.155" stroke="white" stroke-width="0.764016" stroke-miterlimit="10" stroke-linecap="round"/>
<path d="M199.945 309.266L154.305 388.318" stroke="white" stroke-width="0.764016" stroke-miterlimit="10" stroke-linecap="round"/>
<path d="M197.422 307.809L151.781 386.861" stroke="white" stroke-width="0.764016" stroke-miterlimit="10" stroke-linecap="round"/>
<path d="M194.799 306.294L149.158 385.346" stroke="white" stroke-width="0.764016" stroke-miterlimit="10" stroke-linecap="round"/>
<path d="M192.178 304.781L146.537 383.833" stroke="white" stroke-width="0.764016" stroke-miterlimit="10" stroke-linecap="round"/>
<path d="M188.998 302.946L143.358 381.998" stroke="white" stroke-width="0.764016" stroke-miterlimit="10" stroke-linecap="round"/>
<path d="M186.564 301.54L140.924 380.592" stroke="white" stroke-width="0.764016" stroke-miterlimit="10" stroke-linecap="round"/>
<path d="M183.57 299.812L137.93 378.863" stroke="white" stroke-width="0.764016" stroke-miterlimit="10" stroke-linecap="round"/>
<path d="M180.949 298.299L135.309 377.351" stroke="white" stroke-width="0.764016" stroke-miterlimit="10" stroke-linecap="round"/>
<path d="M45.6243 430.593L72.2675 448.6L69.4402 476.915L67.1817 483.348L43.145 480.454L24.4004 463.641L30.3496 440.372L45.6243 430.593Z" fill="#B47230" stroke="#B47230" stroke-width="1.52803" stroke-miterlimit="10"/>
<path d="M46.457 434.859L70.142 450.029L68.4292 473.746" stroke="white" stroke-width="0.764016" stroke-miterlimit="10" stroke-linecap="round"/>
<path d="M172.018 411.134L144.92 415.705L141.379 449.725" stroke="white" stroke-width="0.764016" stroke-miterlimit="10" stroke-linecap="round"/>
</g>
</g>
<g clip-path="url(#clip2_206_1024)">
<path d="M425.944 457.834L495.544 551.093L508.705 560.723L583.145 588.132L596.949 601.989L598.941 623.244L584.655 634.57L564.778 636.868L496.742 623.367L479.089 621.648L466.439 615.063L455.761 598.103L450.999 578.45L384.402 488.638L425.944 457.834Z" fill="#B47230"/>
<mask id="mask2_206_1024" style="mask-type:luminance" maskUnits="userSpaceOnUse" x="384" y="457" width="215" height="180">
<path d="M425.944 457.834L495.544 551.093L508.705 560.723L583.145 588.132L596.949 601.989L598.941 623.244L584.655 634.57L564.778 636.868L496.742 623.367L479.089 621.648L466.439 615.063L455.761 598.103L450.999 578.45L384.402 488.638L425.944 457.834Z" fill="white"/>
</mask>
<g mask="url(#mask2_206_1024)">
<path d="M583.146 588.132L558.737 609.062L564.779 636.868L567.757 643.001L591.303 637.383L608.005 618.54L599.441 596.1L583.146 588.132Z" fill="#B47230" stroke="#B47230" stroke-width="1.52803" stroke-miterlimit="10"/>
<path d="M437.697 466.878L389.433 502.667" stroke="white" stroke-width="7.64016" stroke-miterlimit="10" stroke-linecap="square"/>
<path d="M447.479 480.069L399.214 515.858" stroke="white" stroke-width="7.64016" stroke-miterlimit="10" stroke-linecap="square"/>
<path d="M457.262 493.264L408.997 529.053" stroke="white" stroke-width="7.64016" stroke-miterlimit="10" stroke-linecap="square"/>
<path d="M467.047 506.458L418.782 542.247" stroke="white" stroke-width="7.64016" stroke-miterlimit="10" stroke-linecap="square"/>
<path d="M476.83 519.653L428.565 555.442" stroke="white" stroke-width="7.64016" stroke-miterlimit="10" stroke-linecap="square"/>
<path d="M487.297 533.768L463.045 554.039L439.032 569.557" stroke="white" stroke-width="7.64016" stroke-miterlimit="10" stroke-linecap="square"/>
<path d="M498.83 547.873L475.52 571.407L449.021 583.509" stroke="white" stroke-width="7.64016" stroke-miterlimit="10" stroke-linecap="square"/>
<path d="M511.611 558.863L494.943 582.908L487.167 622.435" stroke="white" stroke-width="7.64016" stroke-miterlimit="10" stroke-linecap="square"/>
<path d="M529.674 563.885L514.971 589.035L504.222 629.169" stroke="white" stroke-width="7.64016" stroke-miterlimit="10" stroke-linecap="square"/>
<path d="M546.963 567.609L531.555 599.26L521.516 632.894" stroke="white" stroke-width="7.64016" stroke-miterlimit="10" stroke-linecap="square"/>
<path d="M567.047 571.283L549.492 603.675L541.597 636.57" stroke="white" stroke-width="7.64016" stroke-miterlimit="10" stroke-linecap="square"/>
<path d="M589.568 578.799L564.044 610.237L562.7 642.712" stroke="white" stroke-width="7.64016" stroke-miterlimit="10" stroke-linecap="square"/>
</g>
</g>
<g clip-path="url(#clip3_206_1024)">
<path d="M447.909 1102.37L474.079 988.98L482.251 974.867L539.363 919.813L546.421 901.572L539.686 881.312L522.053 876.696L502.928 882.593L446.083 922.339L430.615 931.019L421.687 942.139L418.739 961.962L422.291 981.869L397.481 1090.89L447.909 1102.37Z" fill="#B47230"/>
<mask id="mask3_206_1024" style="mask-type:luminance" maskUnits="userSpaceOnUse" x="397" y="876" width="150" height="227">
<path d="M447.909 1102.37L474.079 988.98L482.251 974.867L539.363 919.813L546.421 901.572L539.686 881.312L522.053 876.696L502.928 882.593L446.083 922.339L430.615 931.019L421.687 942.139L418.739 961.962L422.291 981.869L397.481 1090.89L447.909 1102.37Z" fill="white"/>
</mask>
<g mask="url(#mask3_206_1024)">
<path d="M443.773 1097.14L449.552 1071.74" stroke="white" stroke-width="0.764016" stroke-miterlimit="10" stroke-linecap="round"/>
<path d="M446.516 1097.76L452.294 1072.37" stroke="white" stroke-width="0.764016" stroke-miterlimit="10" stroke-linecap="round"/>
<path d="M440.764 1096.45L446.542 1071.06" stroke="white" stroke-width="0.764016" stroke-miterlimit="10" stroke-linecap="round"/>
<path d="M437.547 1095.72L443.325 1070.33" stroke="white" stroke-width="0.764016" stroke-miterlimit="10" stroke-linecap="round"/>
<path d="M434.395 1095L440.173 1069.61" stroke="white" stroke-width="0.764016" stroke-miterlimit="10" stroke-linecap="round"/>
<path d="M431.344 1094.31L437.122 1068.92" stroke="white" stroke-width="0.764016" stroke-miterlimit="10" stroke-linecap="round"/>
<path d="M428.498 1093.66L434.276 1068.27" stroke="white" stroke-width="0.764016" stroke-miterlimit="10" stroke-linecap="round"/>
<path d="M425.652 1093.01L431.431 1067.62" stroke="white" stroke-width="0.764016" stroke-miterlimit="10" stroke-linecap="round"/>
<path d="M422.068 1092.2L427.847 1066.8" stroke="white" stroke-width="0.764016" stroke-miterlimit="10" stroke-linecap="round"/>
<path d="M419.223 1091.55L425.001 1066.16" stroke="white" stroke-width="0.764016" stroke-miterlimit="10" stroke-linecap="round"/>
<path d="M416.273 1090.88L422.052 1065.49" stroke="white" stroke-width="0.764016" stroke-miterlimit="10" stroke-linecap="round"/>
<path d="M413.324 1090.21L419.103 1064.81" stroke="white" stroke-width="0.764016" stroke-miterlimit="10" stroke-linecap="round"/>
<path d="M409.74 1089.39L415.519 1064" stroke="white" stroke-width="0.764016" stroke-miterlimit="10" stroke-linecap="round"/>
<path d="M407.002 1088.77L412.78 1063.38" stroke="white" stroke-width="0.764016" stroke-miterlimit="10" stroke-linecap="round"/>
<path d="M403.631 1088L409.409 1062.61" stroke="white" stroke-width="0.764016" stroke-miterlimit="10" stroke-linecap="round"/>
<path d="M400.682 1087.33L406.46 1061.94" stroke="white" stroke-width="0.764016" stroke-miterlimit="10" stroke-linecap="round"/>
<path d="M539.363 919.813L508.59 910.479L502.928 882.593L503.185 875.78L527.004 871.445L549.878 881.97L551.068 905.959L539.363 919.813Z" fill="#B47230" stroke="#B47230" stroke-width="1.52803" stroke-miterlimit="10"/>
</g>
</g>
<g clip-path="url(#clip4_206_1024)">
<path d="M206.867 781.703L181.098 826.665L187.832 830.525L213.588 785.586L206.867 781.703Z" fill="#B47230"/>
<path d="M92.7798 785.128L112.854 787.554L164.799 817.326L190.597 772.314L134.796 740.104L123.687 728.167L87.7339 657.454L72.353 645.372L51.0095 645.891L41.4401 661.404L41.4903 681.414L62.8816 747.395L66.6585 764.728L74.6846 776.514L92.7798 785.128Z" fill="#B47230"/>
<path d="M195.367 775.069L169.579 820.065L176.317 823.926L202.094 778.951L195.367 775.069Z" fill="#B47230"/>
<path d="M192.61 833.265L209.861 843.152L235.579 798.279L218.358 788.339L192.61 833.265Z" fill="#B47230"/>
</g>
<g clip-path="url(#clip5_206_1024)">
<path d="M152.113 924.653L266.21 947.529L280.554 955.285L337.24 1010.78L355.677 1017.31L375.733 1009.99L379.837 992.227L373.388 973.285L332.013 917.615L322.889 902.401L311.515 893.802L291.615 891.43L271.819 895.553L162.124 873.911L152.113 924.653Z" fill="#B47230"/>
<mask id="mask4_206_1024" style="mask-type:luminance" maskUnits="userSpaceOnUse" x="152" y="873" width="228" height="145">
<path d="M152.113 924.653L266.21 947.529L280.554 955.285L337.24 1010.78L355.677 1017.31L375.733 1009.99L379.837 992.227L373.388 973.285L332.013 917.615L322.889 902.401L311.515 893.802L291.615 891.43L271.819 895.553L162.124 873.911L152.113 924.653Z" fill="white"/>
</mask>
<g mask="url(#mask4_206_1024)">
<path d="M185.695 926.372L267.12 942.437L283.463 951.175L337.004 1002.12" stroke="white" stroke-width="0.764016" stroke-miterlimit="10" stroke-linecap="round"/>
<path d="M187.292 920.524L272.566 936.425L285.288 943.327L339.432 996.17" stroke="white" stroke-width="0.764016" stroke-miterlimit="10" stroke-linecap="round"/>
<path d="M188.672 913.526L276.667 929.785L288.466 935.859L342.066 986.722" stroke="white" stroke-width="0.764016" stroke-miterlimit="10" stroke-linecap="round"/>
<path d="M190.56 906.189L284.894 923.808L290.5 927.227L343.683 978.865" stroke="white" stroke-width="0.764016" stroke-miterlimit="10" stroke-linecap="round"/>
<path d="M191.941 899.192L283.521 916.267" stroke="white" stroke-width="0.764016" stroke-miterlimit="10" stroke-linecap="round"/>
<path d="M193.322 892.195L279.151 908.798" stroke="white" stroke-width="0.764016" stroke-miterlimit="10" stroke-linecap="round"/>
<path d="M194.959 885.575L274.212 900.888" stroke="white" stroke-width="0.764016" stroke-miterlimit="10" stroke-linecap="round"/>
<path d="M154.49 922.645L163.992 876.713" stroke="white" stroke-width="0.764016" stroke-miterlimit="10" stroke-linecap="round"/>
<path d="M182.094 925.662L190.967 882.915" stroke="white" stroke-width="0.764016" stroke-miterlimit="10" stroke-linecap="round"/>
<path d="M341 1008.64L347.709 981.329L370.708 975.295" stroke="white" stroke-width="0.764016" stroke-miterlimit="10" stroke-linecap="round"/>
<path d="M278.001 897.47L291.077 921.64L324.417 914.01" stroke="white" stroke-width="0.764016" stroke-miterlimit="10" stroke-linecap="round"/>
</g>
</g>
<g clip-path="url(#clip6_206_1024)">
<path d="M575.036 745.927L464.725 782.983L451.472 792.486L402.223 854.674L384.753 863.47L363.935 858.733L357.629 841.631L361.641 822.025L395.681 761.589L402.818 745.351L413.018 735.386L432.461 730.527L452.62 732.13L558.718 696.853L575.036 745.927Z" fill="#B47230"/>
<mask id="mask5_206_1024" style="mask-type:luminance" maskUnits="userSpaceOnUse" x="357" y="696" width="219" height="168">
<path d="M575.036 745.927L464.725 782.983L451.472 792.486L402.223 854.674L384.753 863.47L363.935 858.733L357.629 841.631L361.641 822.025L395.681 761.589L402.818 745.351L413.018 735.386L432.461 730.527L452.62 732.13L558.718 696.853L575.036 745.927Z" fill="white"/>
</mask>
<g mask="url(#mask5_206_1024)">
<path d="M555.6 759.394L556.292 747.091L547.889 741.688C547.889 741.688 538.798 741.068 538.185 741.272C537.573 741.475 532.231 751.452 532.231 751.452L534.343 761.909L546.752 764.88L555.6 759.394Z" fill="white"/>
<path d="M460.506 746.525L468.593 737.225L465.265 727.809C465.265 727.809 458.464 721.749 457.851 721.53C457.239 721.311 446.909 725.925 446.909 725.925L442.169 735.484L450.153 745.438L460.506 746.525Z" fill="white"/>
<path d="M573.192 724.278L573.883 711.975L565.481 706.572C565.481 706.572 556.39 705.952 555.777 706.156C555.165 706.359 549.822 716.336 549.822 716.336L551.935 726.793L564.344 729.764L573.192 724.278Z" fill="white"/>
<path d="M374.543 789.566L385.775 794.64L393.84 788.746C393.84 788.746 397.692 780.489 397.723 779.843C397.754 779.196 390.371 770.625 390.371 770.625L379.854 768.828L372.615 779.334L374.547 789.565L374.543 789.566Z" fill="white"/>
<path d="M418.696 823.666L429.928 828.74L437.992 822.846C437.992 822.846 441.845 814.588 441.875 813.942C441.906 813.296 434.523 804.724 434.523 804.724L424.006 802.927L416.767 813.434L418.699 823.665L418.696 823.666Z" fill="white"/>
<path d="M526.674 718.638L527.366 706.335L518.963 700.932C518.963 700.932 509.872 700.312 509.26 700.515C508.647 700.719 503.305 710.696 503.305 710.696L505.417 721.153L517.826 724.124L526.674 718.638Z" fill="white"/>
<path d="M401.17 828.229L401.862 815.925L393.459 810.523C393.459 810.523 384.368 809.902 383.756 810.106C383.143 810.31 377.801 820.286 377.801 820.286L379.913 830.743L392.322 833.715L401.17 828.229Z" fill="white"/>
<path d="M485.999 779.839L482.317 768.076L472.552 765.973C472.552 765.973 463.824 768.589 463.319 768.995C462.814 769.4 461.326 780.615 461.326 780.615L466.98 789.665L479.642 788.084L485.998 779.836L485.999 779.839Z" fill="white"/>
<path d="M506.401 752.709L511.331 741.505L504.433 733.775L493.567 733.519L486.249 738.001L487.062 750.713L501.341 756.9L506.401 752.709Z" fill="white"/>
<path d="M438.669 778.994L443.599 767.79L436.701 760.059L425.831 759.801L418.518 764.286L419.326 776.996L428.224 783.719L438.669 778.994Z" fill="white"/>
<path d="M402.564 855.7L390.287 825.978L361.983 823.051L355.227 823.968L353.225 848.096L365.922 869.84L389.913 868.695L402.564 855.7Z" fill="white"/>
<path d="M453.124 729.99L436.213 768.748L395.928 758.749L402.006 743.283L412.29 732.565L432.254 727.71L453.124 729.99Z" fill="white"/>
</g>
</g>
<g clip-path="url(#clip7_206_1024)">
<path d="M110.82 613.117L193.59 528.091L199.429 515.218L214.799 437.394L226.315 421.585L246.995 416.28L260.423 428.607L265.818 447.879L263.174 517.191L264.253 534.892L259.734 548.422L244.663 561.632L226.002 569.422L147.768 649.303L110.82 613.117Z" fill="#B47230"/>
<path d="M122.819 600.787L193.588 528.092L199.427 515.218L214.797 437.394L226.313 421.585L246.994 416.28L260.421 428.607L265.816 447.879L263.172 517.191L264.251 534.892L259.732 548.422L244.661 561.632L226 569.422L159.805 637.011L122.819 600.787Z" fill="white"/>
<mask id="mask6_206_1024" style="mask-type:luminance" maskUnits="userSpaceOnUse" x="122" y="416" width="144" height="222">
<path d="M122.819 600.787L193.588 528.092L199.427 515.218L214.797 437.394L226.313 421.585L246.994 416.28L260.421 428.607L265.816 447.879L263.172 517.191L264.251 534.892L259.732 548.422L244.661 561.632L226 569.422L159.805 637.011L122.819 600.787Z" fill="white"/>
</mask>
<g mask="url(#mask6_206_1024)">
<path d="M248.358 534.844L253.952 446.141" stroke="#B47230" stroke-width="1.52803" stroke-miterlimit="10"/>
<path d="M135.183 612.896L208.076 538.468L228.731 441.004" stroke="#B47230" stroke-width="1.52803" stroke-miterlimit="10"/>
<path d="M148.533 625.972L223.003 549.934L226.524 546.339L241.783 446.725" stroke="#B47230" stroke-width="1.52803" stroke-miterlimit="10"/>
<path d="M205.49 469.265L274.739 485.354" stroke="#B47230" stroke-width="1.52803" stroke-miterlimit="10"/>
<path d="M214.796 437.394L239.303 458.215L265.815 447.879L271.404 443.974L262.153 421.601L240.92 408.066L220.107 420.053L214.796 437.394Z" fill="#B47230" stroke="#B47230" stroke-width="1.52803" stroke-miterlimit="10"/>
<path d="M205.291 450.468L274.543 466.56" stroke="#B47230" stroke-width="1.52803" stroke-miterlimit="10"/>
<path d="M202.236 486.487L270.948 503.125" stroke="#B47230" stroke-width="1.52803" stroke-miterlimit="10"/>
<path d="M197.273 502.364L271.936 524.358" stroke="#B47230" stroke-width="1.52803" stroke-miterlimit="10"/>
<path d="M227.304 572.31L224.622 530.11L265.022 520.586L266.688 537.12L262.438 551.352L246.905 564.799L227.304 572.31Z" fill="#B47230"/>
<path d="M129.592 587.845L175.606 632.91" stroke="#B47230" stroke-width="1.52803" stroke-miterlimit="10"/>
<path d="M140.254 576.958L186.268 622.023" stroke="#B47230" stroke-width="1.52803" stroke-miterlimit="10"/>
<path d="M150.912 566.074L196.926 611.14" stroke="#B47230" stroke-width="1.52803" stroke-miterlimit="10"/>
<path d="M161.574 555.187L207.588 600.253" stroke="#B47230" stroke-width="1.52803" stroke-miterlimit="10"/>
<path d="M172.234 544.303L218.249 589.369" stroke="#B47230" stroke-width="1.52803" stroke-miterlimit="10"/>
<path d="M182.896 533.417L228.911 578.482" stroke="#B47230" stroke-width="1.52803" stroke-miterlimit="10"/>
<path d="M190.885 525.262L237.497 561.069" stroke="#B47230" stroke-width="1.52803" stroke-miterlimit="10"/>
<path d="M190.221 512.345L256.794 545.689" stroke="#B47230" stroke-width="1.52803" stroke-miterlimit="10"/>
</g>
<path d="M151.314 647.702L111.402 608.613L112.739 607.248L152.651 646.337L151.314 647.702Z" fill="white"/>
<path d="M154.136 644.82L114.225 605.731L115.561 604.366L155.473 643.455L154.136 644.82Z" fill="white"/>
<path d="M156.959 641.938L117.047 602.849L118.383 601.485L158.295 640.573L156.959 641.938Z" fill="white"/>
<path d="M147.457 651.64L107.545 612.551L108.881 611.187L148.793 650.275L147.457 651.64Z" fill="white"/>
</g>
<g clip-path="url(#clip8_206_1024)">
<path d="M332.016 426.678L440.7 385.092L456.97 383.99L534.53 400.64L553.604 396.312L566.653 379.414L560.639 362.208L545.072 349.636L480.362 324.662L464.524 316.67L450.315 315.474L432.223 324.095L417.688 338.152L313.385 378.43L332.016 426.678Z" fill="#B47230"/>
<mask id="mask7_206_1024" style="mask-type:luminance" maskUnits="userSpaceOnUse" x="313" y="315" width="254" height="112">
<path d="M332.016 426.678L440.7 385.092L456.97 383.99L534.53 400.64L553.604 396.312L566.653 379.414L560.639 362.208L545.072 349.636L480.362 324.662L464.524 316.67L450.315 315.474L432.223 324.095L417.688 338.152L313.385 378.43L332.016 426.678Z" fill="white"/>
</mask>
<g mask="url(#mask7_206_1024)">
<path d="M342.866 391.636C340.749 393.027 339.461 395.682 339.291 398.168C339.212 399.28 339.332 400.449 339.941 401.41C340.517 402.318 341.515 402.751 342.569 402.713C344.456 402.648 346.237 401.362 347.647 400.232L346.782 399.538C346.332 400.908 346.063 402.416 346.538 403.818C346.872 404.81 347.636 405.642 348.619 406.015C350.759 406.827 353.167 405.68 354.354 403.834C355.288 402.384 355.541 400.652 355.382 398.957L354.352 399.355C355.653 400.826 357.223 402.345 359.176 402.864C360.353 403.176 361.617 402.941 362.448 402.006C364.286 399.937 362.941 396.697 361.123 395.139C359.389 393.65 357.078 393.138 354.85 393.073L355.113 394.179C357.78 393.014 358.567 389.443 358.694 386.834C358.763 385.423 358.682 383.972 358.241 382.619C357.938 381.684 357.349 380.605 356.283 380.423C354.757 380.16 353.547 381.84 352.833 382.93L353.846 383.379C354.717 379.824 354.898 374.512 351.077 372.528C349.913 371.92 348.467 371.868 347.286 372.456C345.884 373.153 345.036 374.5 344.669 375.989C344.036 378.568 344.792 381.363 345.774 383.748L346.667 383.092C344.951 381.605 341.156 378.746 339.113 381.345C338.416 382.233 338.266 383.445 338.323 384.537C338.395 385.922 338.819 387.306 339.442 388.54C340.242 390.123 341.383 391.529 342.845 392.537C343.448 392.951 344.169 392.062 343.56 391.642C341.436 390.182 339.929 387.762 339.541 385.209C339.401 384.285 339.373 383.247 339.799 382.39C340.131 381.722 340.72 381.412 341.506 381.486C343.19 381.638 344.731 382.935 345.953 383.99C346.385 384.364 347.06 383.854 346.847 383.334C346.029 381.344 345.378 379.118 345.661 376.945C345.832 375.617 346.386 374.388 347.429 373.686C348.238 373.14 349.331 373.034 350.273 373.415C351.419 373.882 352.238 374.909 352.703 376.113C353.571 378.362 353.28 380.915 352.719 383.196C352.585 383.739 353.424 384.119 353.731 383.644C354.115 383.058 354.545 382.441 355.071 382.001C355.164 381.924 355.262 381.849 355.361 381.778C355.407 381.748 355.453 381.718 355.502 381.687C355.579 381.641 355.454 381.701 355.596 381.642C355.681 381.609 355.77 381.575 355.859 381.549C355.721 381.586 355.962 381.542 356.018 381.537C356.038 381.537 355.917 381.531 356.047 381.538C356.084 381.54 356.125 381.549 356.161 381.559C356.263 381.577 356.069 381.521 356.168 381.556C356.212 381.572 356.251 381.59 356.292 381.611C356.394 381.662 356.274 381.597 356.305 381.614C356.344 381.64 356.383 381.666 356.419 381.697C356.453 381.721 356.481 381.751 356.516 381.778C356.586 381.842 356.462 381.713 356.549 381.811C356.609 381.882 356.666 381.954 356.719 382.028C356.753 382.072 356.78 382.123 356.812 382.172C356.867 382.261 356.847 382.232 356.853 382.238C356.969 382.451 357.06 382.678 357.138 382.91C357.899 385.114 357.703 388.044 356.889 390.283C356.659 390.917 356.375 391.518 355.978 392.039C355.625 392.503 355.188 392.889 354.705 393.1C354.078 393.375 354.342 394.186 354.968 394.207C357.842 394.288 361.199 395.494 362.026 398.528C362.128 398.899 362.18 399.477 362.14 399.852C362.095 400.287 361.956 400.722 361.779 400.995C361.312 401.704 360.623 401.957 359.743 401.81C357.943 401.506 356.427 399.966 355.277 398.665C354.916 398.26 354.189 398.467 354.248 399.063C354.452 401.236 353.791 403.736 351.694 404.742C350.277 405.42 348.455 405.219 347.758 403.764C347.199 402.592 347.444 401.179 347.835 399.996C347.997 399.495 347.454 398.914 346.969 399.302C345.808 400.23 344.425 401.272 342.926 401.515C342.49 401.585 342.041 401.578 341.725 401.45C341.382 401.312 341.182 401.156 340.968 400.866C340.793 400.627 340.603 400.176 340.537 399.898C340.43 399.452 340.398 398.924 340.413 398.509C340.456 397.419 340.749 396.344 341.209 395.363C341.737 394.238 342.506 393.229 343.552 392.542C344.169 392.136 343.486 391.216 342.869 391.623L342.866 391.636Z" fill="white"/>
<path d="M345.823 389.22C345.303 391.309 346.681 393.308 348.441 394.303C349.185 394.724 350.128 395.011 350.984 394.832C351.959 394.632 352.587 393.935 352.83 392.985C352.979 392.407 352.958 391.789 352.888 391.206C352.81 390.548 352.699 389.899 352.511 389.263C352.226 388.292 351.762 387.324 351.062 386.583C350.007 385.463 348.268 384.767 346.9 385.795C345.261 387.022 345.498 389.481 345.973 391.21C346.066 391.555 346.179 391.892 346.302 392.23C346.553 392.923 347.622 392.51 347.371 391.817C347.161 391.243 346.99 390.682 346.89 390.115C346.845 389.862 346.809 389.61 346.789 389.355C346.779 389.245 346.774 389.128 346.768 389.015C346.768 388.962 346.766 388.905 346.766 388.852C346.766 388.82 346.771 388.674 346.767 388.717C346.766 388.766 346.773 388.637 346.776 388.611C346.78 388.56 346.782 388.51 346.788 388.463C346.798 388.361 346.811 388.258 346.829 388.156C346.845 388.068 346.863 387.979 346.882 387.89C346.896 387.84 346.905 387.791 346.92 387.744C346.936 387.681 346.91 387.781 346.91 387.781C346.919 387.753 346.927 387.73 346.936 387.701C346.991 387.545 347.056 387.397 347.134 387.248C347.143 387.229 347.208 387.122 347.159 387.198C347.111 387.274 347.177 387.17 347.191 387.153C347.237 387.09 347.282 387.027 347.329 386.968C347.373 386.914 347.421 386.867 347.467 386.817C347.355 386.942 347.495 386.794 347.545 386.754C347.602 386.711 347.659 386.669 347.718 386.63C347.744 386.611 347.774 386.596 347.802 386.581C347.719 386.633 347.715 386.622 347.792 386.589C347.853 386.565 347.907 386.536 347.969 386.516C348.037 386.49 348.22 386.456 348.048 386.486C348.182 386.463 348.31 386.446 348.447 386.438C348.607 386.43 348.364 386.425 348.529 386.439C348.602 386.448 348.674 386.453 348.744 386.467C348.815 386.48 348.889 386.501 348.963 386.513C348.995 386.521 348.854 386.474 348.959 386.515C348.998 386.529 349.039 386.541 349.077 386.555C349.225 386.609 349.36 386.683 349.498 386.753C349.596 386.805 349.477 386.741 349.508 386.757C349.54 386.778 349.574 386.802 349.606 386.822C349.679 386.872 349.753 386.925 349.819 386.981C349.886 387.037 349.951 387.09 350.013 387.144C350.045 387.173 350.076 387.201 350.109 387.234C350.221 387.342 350.104 387.219 350.163 387.287C350.296 387.432 350.419 387.581 350.538 387.74C350.661 387.909 350.776 388.09 350.882 388.27C350.94 388.367 350.859 388.222 350.911 388.324C350.938 388.372 350.961 388.42 350.985 388.472C351.04 388.582 351.091 388.693 351.137 388.802C351.568 389.811 351.786 390.865 351.803 391.981C351.805 392.177 351.792 392.386 351.746 392.638C351.736 392.687 351.723 392.737 351.713 392.786C351.704 392.826 351.669 392.926 351.702 392.831C351.672 392.924 351.634 393.017 351.593 393.102C351.576 393.142 351.553 393.179 351.535 393.215C351.52 393.241 351.593 393.143 351.524 393.231C351.473 393.3 351.416 393.363 351.365 393.432C351.442 393.378 351.302 393.514 351.365 393.432C351.335 393.451 351.305 393.479 351.277 393.503C351.249 393.526 351.216 393.547 351.187 393.566C351.069 393.653 351.24 393.554 351.161 393.584C351.09 393.612 351.025 393.645 350.957 393.671C350.922 393.685 350.883 393.692 350.851 393.704C350.762 393.738 350.964 393.689 350.836 393.706C350.757 393.716 350.681 393.729 350.605 393.734C350.565 393.737 350.524 393.736 350.484 393.739C350.427 393.741 350.335 393.735 350.451 393.74C350.274 393.726 350.101 393.703 349.927 393.664C349.883 393.656 349.841 393.644 349.799 393.631C349.69 393.603 349.799 393.631 349.767 393.623C349.664 393.589 349.565 393.554 349.467 393.514C349.282 393.438 349.105 393.35 348.933 393.253C348.9 393.233 348.806 393.179 348.89 393.229C348.848 393.204 348.808 393.174 348.766 393.15C348.677 393.09 348.588 393.03 348.502 392.965C348.334 392.837 348.175 392.702 348.021 392.557C347.983 392.522 347.949 392.487 347.914 392.451C347.989 392.528 347.884 392.413 347.862 392.389C347.789 392.307 347.716 392.224 347.649 392.135C347.519 391.968 347.402 391.793 347.294 391.609C347.259 391.549 347.301 391.627 347.304 391.634C347.294 391.609 347.279 391.59 347.269 391.565C347.248 391.52 347.223 391.477 347.2 391.428C347.153 391.328 347.111 391.229 347.071 391.126C347.035 391.033 347.005 390.934 346.977 390.839C346.961 390.8 346.941 390.693 346.962 390.791C346.949 390.735 346.939 390.677 346.928 390.616C346.91 390.508 346.897 390.399 346.887 390.288C346.883 390.236 346.881 390.188 346.881 390.135C346.88 390.111 346.881 390.082 346.88 390.057C346.878 389.968 346.875 390.141 346.877 390.05C346.889 389.828 346.924 389.61 346.979 389.392C347.056 389.093 346.792 388.781 346.505 388.736C346.177 388.683 345.924 388.907 345.848 389.211L345.823 389.22Z" fill="white"/>
<path d="M377.789 394.366C377.388 394.992 376.926 395.588 376.323 396.03C375.896 396.346 375.424 396.557 374.94 396.617C374.483 396.674 374.016 396.609 373.617 396.456C373.098 396.259 372.761 396.033 372.334 395.649C370.86 394.323 369.953 391.847 370.962 390.028C371.22 389.56 371.686 389.114 372.237 388.811C372.928 388.426 373.805 388.238 374.623 388.16C375.116 388.113 375.315 387.451 374.922 387.144C372.419 385.178 370.793 382.039 371.607 378.878C371.665 378.655 371.751 378.401 371.871 378.129C371.991 377.858 372.103 377.647 372.224 377.473C372.294 377.368 372.37 377.269 372.45 377.169C372.487 377.126 372.524 377.083 372.564 377.039C372.587 377.013 372.735 376.866 372.642 376.955C372.727 376.878 372.813 376.803 372.909 376.734C372.95 376.701 372.997 376.675 373.038 376.643C373.122 376.586 373.165 376.569 373.109 376.595C373.205 376.546 373.303 376.503 373.404 376.469C373.451 376.451 373.498 376.436 373.544 376.427C373.522 376.435 373.492 376.431 373.598 376.418C373.704 376.406 373.806 376.395 373.911 376.392C373.78 376.393 374.075 376.414 374.145 376.424C374.32 376.455 374.184 376.409 374.372 376.492C374.465 376.534 374.651 376.622 374.677 376.636C374.799 376.708 375.154 377.001 375.246 377.092C375.85 377.711 376.258 378.503 376.586 379.29C377.123 380.573 377.455 381.931 377.707 383.296C377.815 383.872 378.517 383.982 378.803 383.471C379.515 382.188 380.481 380.787 381.837 380.129C382.688 379.714 383.516 379.685 384.326 380.117C385.023 380.491 385.563 381.253 385.839 382.072C386.142 382.975 386.127 384.049 385.764 384.996C385.23 386.382 384.08 387.391 382.771 388.032C382.118 388.354 382.477 389.349 383.184 389.101C385.675 388.225 388.963 388.192 390.796 390.264C390.962 390.45 391.109 390.651 391.242 390.858C391.336 391.006 391.41 391.145 391.504 391.387C391.632 391.719 391.695 392.116 391.647 392.417C391.603 392.684 391.614 392.627 391.512 392.862C391.449 393.006 391.521 392.884 391.424 393.015C391.361 393.097 391.299 393.178 391.228 393.251C391.304 393.172 391.116 393.343 391.074 393.371C391.033 393.404 390.99 393.429 390.944 393.459C390.862 393.511 390.875 393.502 390.868 393.505C390.687 393.599 390.374 393.711 390.255 393.741C388.441 394.188 386.383 393.471 384.719 392.82C384.178 392.607 383.709 393.206 384.025 393.686C384.886 394.983 385.754 396.433 386.045 397.983C386.134 398.469 386.164 398.896 386.076 399.356C386.045 399.519 386.019 399.591 385.925 399.783C385.859 399.919 385.936 399.791 385.844 399.912C385.814 399.952 385.641 400.138 385.727 400.055C385.492 400.273 385.265 400.365 385.01 400.394C384.63 400.438 384.343 400.414 383.914 400.301C382.986 400.05 382.053 399.374 381.338 398.667C380.168 397.514 379.344 396.038 378.771 394.511C378.512 393.82 377.443 394.233 377.701 394.924C378.696 397.574 380.618 400.472 383.47 401.357C384.382 401.64 385.453 401.689 386.265 401.097C387.076 400.505 387.343 399.403 387.262 398.41C387.106 396.456 386.008 394.599 384.95 393.005L384.256 393.871C386.041 394.57 388.092 395.236 390.037 394.947C391.152 394.783 392.279 394.212 392.66 393.078C393.489 390.621 390.953 388.414 388.866 387.75C386.779 387.086 384.735 387.339 382.77 388.028L383.183 389.097C384.641 388.378 385.933 387.322 386.647 385.831C387.21 384.659 387.338 383.315 387.024 382.057C386.443 379.734 384.214 378.035 381.816 378.888C379.947 379.552 378.676 381.341 377.753 383L378.848 383.175C378.438 380.958 377.867 378.459 376.401 376.667C375.586 375.671 374.379 374.954 373.071 375.361C371.916 375.721 371.128 376.831 370.718 377.911C370.17 379.355 370.129 380.956 370.481 382.45C371.009 384.699 372.408 386.603 374.209 388.021L374.508 387.005C372.921 387.159 371.233 387.696 370.244 389.028C369.466 390.078 369.248 391.432 369.483 392.696C369.933 395.147 371.937 397.768 374.631 397.768C376.393 397.771 377.784 396.464 378.682 395.065C379.075 394.451 378.186 393.729 377.787 394.35L377.789 394.366Z" fill="white"/>
<path d="M376.17 390.647C376.386 390.825 376.606 391.003 376.826 391.18C377.021 391.334 377.218 391.483 377.417 391.627C377.588 391.754 377.764 391.878 377.941 391.998C378.096 392.102 378.248 392.199 378.405 392.298C378.58 392.402 378.752 392.508 378.935 392.601C379.048 392.66 379.168 392.716 379.287 392.768C379.429 392.828 379.573 392.875 379.724 392.915C379.806 392.936 379.887 392.954 379.972 392.963C380.057 392.971 380.14 392.975 380.225 392.971C380.258 392.971 380.289 392.967 380.32 392.963C380.397 392.95 380.476 392.932 380.552 392.906C380.577 392.897 380.602 392.887 380.627 392.877C380.688 392.846 380.765 392.812 380.82 392.762C380.874 392.712 380.93 392.666 380.977 392.607C381.024 392.548 381.061 392.485 381.094 392.423C381.107 392.402 381.117 392.377 381.125 392.354C381.148 392.296 381.162 392.237 381.179 392.177C381.182 392.163 381.185 392.15 381.188 392.136C381.194 392.11 381.199 392.079 381.2 392.05C381.209 391.936 381.214 391.82 381.206 391.704C381.201 391.628 381.189 391.555 381.174 391.483C381.147 391.35 381.116 391.218 381.078 391.086C381.052 390.998 381.021 390.907 380.988 390.822C380.952 390.729 380.916 390.636 380.876 390.541C380.833 390.443 380.789 390.35 380.74 390.254C380.668 390.11 380.589 389.968 380.513 389.826C380.458 389.724 380.4 389.628 380.342 389.531C380.284 389.435 380.222 389.336 380.155 389.239C380.089 389.142 380.024 389.048 379.96 388.954C379.895 388.86 379.823 388.77 379.754 388.677C379.686 388.585 379.613 388.502 379.544 388.419C379.475 388.335 379.403 388.256 379.328 388.178C379.224 388.067 379.121 387.959 379.007 387.856C378.938 387.793 378.863 387.727 378.792 387.669C378.725 387.613 378.652 387.563 378.58 387.513C378.475 387.443 378.363 387.376 378.252 387.32C378.145 387.267 378.03 387.234 377.915 387.201C377.855 387.183 377.792 387.17 377.729 387.166C377.654 387.162 377.574 387.156 377.494 387.162C377.415 387.169 377.335 387.195 377.263 387.211C377.238 387.22 377.209 387.228 377.185 387.241C377.111 387.273 377.044 387.312 376.975 387.355C376.949 387.373 376.927 387.39 376.906 387.41C376.85 387.465 376.784 387.519 376.735 387.583C376.686 387.647 376.641 387.721 376.604 387.793C376.583 387.825 376.568 387.86 376.549 387.896C376.495 388.02 376.456 388.153 376.421 388.285C376.392 388.391 376.377 388.499 376.361 388.607C376.337 388.789 376.333 388.97 376.33 389.152C376.325 389.309 376.325 389.469 376.334 389.629C376.341 389.807 376.353 389.986 376.369 390.165C376.375 390.244 376.399 390.317 376.441 390.383C376.468 390.454 376.519 390.512 376.582 390.557C376.637 390.606 376.704 390.641 376.779 390.653C376.846 390.681 376.919 390.689 376.998 390.679L377.147 390.642C377.243 390.605 377.323 390.546 377.39 390.466L377.466 390.343C377.507 390.249 377.52 390.154 377.514 390.054C377.5 389.912 377.488 389.765 377.481 389.62C377.473 389.493 377.469 389.367 377.47 389.24C377.469 389.175 377.468 389.109 377.473 389.046L377.469 389.195C377.473 389.079 377.481 388.961 377.492 388.842C377.503 388.744 377.518 388.644 377.539 388.55C377.549 388.501 377.56 388.456 377.575 388.409L377.534 388.548C377.557 388.469 377.587 388.388 377.625 388.316C377.633 388.296 377.644 388.28 377.657 388.263L377.582 388.386C377.607 388.344 377.636 388.303 377.668 388.271C377.678 388.263 377.686 388.252 377.695 388.244L377.587 388.347C377.614 388.32 377.642 388.297 377.673 388.281C377.683 388.277 377.69 388.274 377.7 388.267L377.564 388.339C377.595 388.324 377.627 388.311 377.66 388.302C377.671 388.298 377.678 388.295 377.689 388.291L377.539 388.329C377.576 388.318 377.616 388.315 377.652 388.314C377.663 388.309 377.673 388.314 377.685 388.313L377.536 388.309C377.586 388.311 377.638 388.319 377.688 388.332C377.702 388.335 377.72 388.341 377.734 388.344L377.595 388.303C377.637 388.316 377.68 388.332 377.719 388.349C377.764 388.369 377.805 388.39 377.851 388.413C377.877 388.428 377.903 388.442 377.925 388.458L377.802 388.383C377.846 388.411 377.889 388.439 377.933 388.467C377.978 388.499 378.023 388.531 378.066 388.568C378.112 388.603 378.155 388.64 378.199 388.68C378.243 388.72 378.293 388.763 378.333 388.804C378.374 388.846 378.424 388.892 378.468 388.941C378.471 388.948 378.48 388.952 378.487 388.958L378.384 388.85C378.429 388.894 378.473 388.943 378.516 388.992C378.56 389.04 378.603 389.089 378.646 389.138C378.69 389.187 378.731 389.24 378.776 389.293C378.82 389.345 378.862 389.399 378.903 389.452C378.944 389.506 378.987 389.563 379.029 389.621C379.072 389.678 379.11 389.733 379.149 389.792C379.188 389.85 379.227 389.909 379.266 389.967C379.305 390.026 379.34 390.086 379.379 390.145C379.418 390.203 379.454 390.263 379.489 390.323C379.525 390.383 379.559 390.44 379.591 390.501C379.596 390.516 379.606 390.532 379.616 390.545L379.543 390.409C379.588 390.494 379.634 390.583 379.679 390.668C379.724 390.753 379.761 390.837 379.803 390.923C379.844 391.009 379.874 391.088 379.907 391.173C379.938 391.252 379.968 391.33 379.991 391.411C380.015 391.484 380.037 391.562 380.057 391.636C380.06 391.643 380.064 391.653 380.067 391.66L380.03 391.511C380.046 391.574 380.057 391.636 380.065 391.698C380.075 391.756 380.08 391.811 380.083 391.871C380.085 391.899 380.086 391.932 380.085 391.961L380.088 391.812C380.089 391.865 380.08 391.917 380.068 391.971C380.065 391.985 380.062 391.998 380.059 392.012L380.1 391.873C380.092 391.905 380.078 391.934 380.065 391.964C380.061 391.974 380.055 391.98 380.053 391.985L380.128 391.862C380.11 391.889 380.092 391.917 380.068 391.939L380.175 391.836C380.151 391.857 380.127 391.879 380.096 391.895L380.232 391.822C380.197 391.839 380.158 391.855 380.121 391.865L380.271 391.828C380.225 391.837 380.182 391.841 380.137 391.842C380.125 391.843 380.108 391.841 380.096 391.842L380.245 391.846C380.158 391.842 380.07 391.827 379.984 391.807C379.957 391.801 379.929 391.792 379.901 391.782L380.039 391.823C379.919 391.787 379.803 391.742 379.693 391.69C379.55 391.627 379.416 391.556 379.281 391.481C379.193 391.433 379.103 391.381 379.017 391.329L379.141 391.404C379.019 391.332 378.899 391.256 378.783 391.178C378.651 391.089 378.517 390.998 378.387 390.905C378.24 390.801 378.098 390.697 377.954 390.589C377.797 390.469 377.639 390.346 377.482 390.226C377.31 390.088 377.138 389.95 376.969 389.81C376.945 389.791 376.926 389.773 376.902 389.754C376.847 389.706 376.78 389.67 376.705 389.658C376.638 389.631 376.565 389.622 376.487 389.632C376.407 389.638 376.334 389.662 376.269 389.704C376.197 389.731 376.139 389.782 376.094 389.845L376.019 389.968C375.977 390.062 375.965 390.157 375.97 390.257L376.008 390.407C376.045 390.503 376.104 390.582 376.184 390.65L376.17 390.647Z" fill="white"/>
<path d="M383.647 368.729C382.903 369.209 382.166 369.601 381.287 369.891C381.124 369.946 380.954 369.995 380.786 370.035C380.617 370.076 380.903 370.01 380.74 370.045C380.71 370.052 380.675 370.057 380.645 370.065C380.551 370.085 380.458 370.1 380.363 370.117C380.042 370.167 379.72 370.193 379.396 370.191C379.252 370.189 379.522 370.2 379.379 370.189C379.354 370.187 379.325 370.186 379.299 370.183C379.227 370.178 379.156 370.173 379.083 370.165C378.937 370.147 378.793 370.125 378.65 370.094C378.592 370.08 378.533 370.066 378.469 370.049C378.311 370.012 378.552 370.083 378.404 370.029C378.28 369.983 378.152 369.938 378.032 369.882C377.923 369.834 377.826 369.773 377.72 369.72C377.613 369.667 377.812 369.779 377.747 369.738C377.725 369.723 377.7 369.712 377.681 369.694C377.63 369.657 377.575 369.621 377.523 369.583C377.431 369.513 377.341 369.441 377.258 369.362C377.221 369.331 377.104 369.197 377.229 369.341C377.187 369.295 377.145 369.25 377.107 369.204C377.04 369.127 376.981 369.048 376.925 368.967C376.895 368.921 376.865 368.875 376.835 368.829C376.781 368.744 376.754 368.672 376.807 368.787C376.717 368.597 376.638 368.414 376.576 368.213C376.522 368.041 376.586 368.291 376.565 368.184C376.558 368.134 376.546 368.081 376.539 368.031C376.525 367.93 376.514 367.827 376.51 367.722C376.508 367.674 376.51 367.628 376.51 367.583C376.504 367.475 376.496 367.728 376.508 367.621C376.509 367.604 376.509 367.583 376.511 367.566C376.522 367.456 376.536 367.344 376.558 367.233C376.57 367.187 376.581 367.142 376.592 367.097C376.623 366.954 376.547 367.213 376.599 367.074C376.636 366.978 376.671 366.878 376.718 366.786C376.741 366.74 376.768 366.693 376.791 366.647C376.865 366.5 376.728 366.729 376.813 366.61C376.877 366.52 376.937 366.431 377.008 366.351C377.043 366.313 377.077 366.275 377.108 366.238C377.22 366.113 377.083 366.248 377.135 366.212C377.235 366.132 377.329 366.047 377.435 365.973C377.481 365.943 377.526 365.909 377.573 365.883C377.609 365.861 377.788 365.763 377.615 365.854C377.731 365.793 377.848 365.736 377.972 365.688C378.122 365.63 378.273 365.576 378.425 365.533C378.457 365.521 378.488 365.517 378.521 365.508C378.636 365.476 378.399 365.531 378.551 365.501C378.644 365.486 378.733 365.463 378.822 365.449C379.197 365.391 379.578 365.371 379.955 365.381C379.847 365.377 379.962 365.378 379.989 365.384C380.052 365.388 380.113 365.389 380.176 365.393C380.286 365.4 380.396 365.411 380.507 365.421C380.741 365.445 380.976 365.482 381.206 365.524C381.734 365.619 382.264 365.75 382.763 365.91C383.3 366.079 383.791 365.549 383.457 365.044C383.332 364.859 383.213 364.667 383.105 364.471C383.069 364.411 383.112 364.489 383.114 364.496C383.105 364.471 383.089 364.453 383.08 364.428C383.058 364.383 383.033 364.339 383.012 364.294C382.964 364.202 382.92 364.109 382.879 364.014C382.804 363.842 382.733 363.669 382.677 363.49C382.65 363.41 382.627 363.329 382.604 363.248C382.592 363.207 382.582 363.17 382.574 363.128C382.558 363.065 382.586 363.181 382.586 363.181C382.58 363.155 382.574 363.128 382.568 363.102C382.536 362.946 382.512 362.788 382.496 362.63C382.489 362.559 382.486 362.487 382.482 362.414C382.48 362.354 382.492 362.132 382.479 362.301C382.492 362.153 382.502 362.01 382.528 361.864C382.539 361.799 382.552 361.736 382.569 361.673C382.577 361.641 382.585 361.609 382.593 361.577C382.612 361.488 382.548 361.693 382.593 361.577C382.641 361.456 382.683 361.334 382.739 361.214C382.767 361.158 382.795 361.102 382.827 361.049C382.842 361.023 382.86 360.995 382.874 360.969C382.829 361.052 382.826 361.045 382.873 360.978C382.947 360.871 383.021 360.765 383.102 360.668C383.141 360.62 383.185 360.575 383.224 360.527C383.243 360.503 383.267 360.481 383.288 360.461C383.305 360.442 383.394 360.355 383.324 360.427C383.256 360.494 383.391 360.368 383.422 360.34C383.474 360.295 383.526 360.25 383.58 360.209C383.684 360.128 383.79 360.054 383.902 359.982C383.955 359.95 384.011 359.916 384.064 359.883C384.091 359.868 384.122 359.852 384.148 359.834C384.158 359.83 384.032 359.895 384.137 359.838C384.258 359.78 384.377 359.717 384.5 359.665C384.75 359.561 385.004 359.475 385.263 359.404C385.425 359.357 385.167 359.42 385.334 359.385C385.402 359.37 385.47 359.356 385.538 359.342C385.668 359.317 385.8 359.299 385.934 359.284C386.067 359.269 386.206 359.257 386.343 359.253C386.404 359.25 386.469 359.249 386.531 359.25C386.563 359.25 386.592 359.251 386.625 359.25C386.747 359.248 386.523 359.241 386.616 359.25C386.867 359.272 387.11 359.288 387.356 359.341C387.413 359.351 387.468 359.367 387.522 359.379C387.549 359.385 387.577 359.394 387.604 359.4C387.69 359.421 387.476 359.356 387.586 359.395C387.695 359.435 387.804 359.471 387.907 359.517C387.957 359.539 388.006 359.561 388.053 359.587C388.088 359.603 388.244 359.69 388.151 359.64C388.058 359.59 388.201 359.674 388.229 359.692C388.274 359.723 388.319 359.755 388.362 359.792C388.402 359.821 388.436 359.857 388.477 359.89C388.601 359.998 388.412 359.805 388.504 359.917C388.572 359.997 388.635 360.075 388.693 360.163C388.705 360.183 388.718 360.207 388.734 360.226C388.785 360.296 388.676 360.096 388.707 360.178C388.727 360.228 388.754 360.279 388.777 360.327C388.796 360.377 388.814 360.424 388.832 360.47C388.842 360.495 388.848 360.521 388.854 360.548C388.892 360.656 388.838 360.431 388.845 360.514C388.853 360.63 388.884 360.741 388.888 360.858C388.89 360.894 388.886 361.076 388.892 360.975C388.898 360.874 388.891 360.984 388.889 361.009C388.887 361.047 388.884 361.081 388.878 361.12C388.861 361.266 388.834 361.407 388.798 361.548C388.791 361.583 388.779 361.617 388.769 361.653C388.804 361.554 388.742 361.754 388.769 361.653C388.743 361.733 388.716 361.813 388.685 361.891C388.621 362.054 388.551 362.213 388.473 362.37C388.43 362.452 388.392 362.532 388.345 362.612C388.324 362.653 388.299 362.695 388.274 362.737C388.26 362.763 388.188 362.885 388.213 362.843C388.24 362.796 388.169 362.909 388.156 362.93C388.128 362.974 388.1 363.017 388.072 363.061C388.008 363.159 387.942 363.254 387.876 363.349C387.736 363.547 387.588 363.739 387.437 363.929C387.267 364.137 387.092 364.34 386.915 364.54C386.477 365.028 387.189 365.736 387.705 365.357C387.871 365.235 388.042 365.116 388.217 365.007C388.307 364.952 388.393 364.899 388.483 364.847C388.516 364.826 388.547 364.81 388.581 364.793C388.476 364.85 388.67 364.747 388.686 364.736C389.007 364.571 389.338 364.431 389.682 364.315C389.835 364.264 389.99 364.22 390.146 364.18C390 364.216 390.234 364.163 390.272 364.156C390.363 364.138 390.452 364.124 390.541 364.11C390.844 364.067 391.151 364.046 391.46 364.05C391.604 364.052 391.333 364.041 391.48 364.05C391.514 364.054 391.552 364.055 391.584 364.055C391.652 364.062 391.724 364.067 391.792 364.073C391.946 364.091 392.102 364.113 392.254 364.145C392.383 364.172 392.513 364.2 392.641 364.237C392.737 364.261 392.628 364.234 392.613 364.227C392.65 364.237 392.688 364.251 392.725 364.262C392.8 364.286 392.871 364.312 392.942 364.337C393.187 364.431 393.426 364.54 393.656 364.668C393.692 364.687 393.865 364.796 393.718 364.701C393.768 364.735 393.82 364.764 393.87 364.798C393.976 364.872 394.082 364.946 394.183 365.025C394.277 365.1 394.369 365.179 394.457 365.259C394.502 365.3 394.547 365.343 394.593 365.387C394.607 365.402 394.626 365.42 394.64 365.435C394.508 365.305 394.621 365.417 394.649 365.447C394.794 365.612 394.931 365.785 395.052 365.972C395.08 366.014 395.105 366.057 395.13 366.101C395.214 366.233 395.077 365.983 395.139 366.122C395.183 366.216 395.232 366.311 395.269 366.408C395.302 366.493 395.328 366.581 395.358 366.668C395.403 366.807 395.339 366.536 395.36 366.676C395.368 366.726 395.38 366.779 395.387 366.829C395.398 366.911 395.385 367.014 395.403 367.093C395.381 367.016 395.415 366.986 395.4 367.107C395.392 367.151 395.39 367.197 395.382 367.24C395.374 367.284 395.358 367.327 395.354 367.37C395.414 367.228 395.349 367.429 395.354 367.37C395.321 367.453 395.277 367.531 395.242 367.61C395.325 367.422 395.211 367.646 395.161 367.707C395.132 367.738 395.098 367.768 395.075 367.801C395.196 367.648 395.092 367.783 395.042 367.822C394.967 367.884 394.887 367.931 394.81 367.986C394.687 368.07 394.924 367.942 394.785 367.995C394.724 368.019 394.671 368.051 394.611 368.075C394.483 368.124 394.349 368.16 394.219 368.206C394.097 368.249 394.354 368.182 394.223 368.204C394.184 368.211 394.147 368.221 394.109 368.228C394.029 368.242 393.952 368.256 393.87 368.267C393.695 368.289 393.52 368.304 393.344 368.314C393.247 368.319 393.149 368.32 393.055 368.319C393.014 368.319 392.973 368.318 392.932 368.318C392.793 368.318 392.957 368.32 392.848 368.313C391.792 368.262 390.753 368.041 389.738 367.757C389.335 367.647 388.924 368.162 389.112 368.532C389.281 368.864 389.433 369.206 389.565 369.557C389.623 369.706 389.67 369.86 389.715 370.01C389.736 370.084 389.756 370.158 389.777 370.232C389.783 370.25 389.804 370.345 389.782 370.247C389.791 370.292 389.804 370.336 389.812 370.378C389.87 370.655 389.907 370.931 389.922 371.212C389.926 371.276 389.925 371.338 389.926 371.403C389.925 371.432 389.922 371.626 389.925 371.486C389.92 371.61 389.908 371.738 389.89 371.863C389.876 371.975 389.854 372.086 389.831 372.197C389.819 372.251 389.806 372.301 389.79 372.357C389.771 372.434 389.822 372.258 389.798 372.333C389.786 372.366 389.776 372.395 389.764 372.428C389.692 372.632 389.599 372.827 389.492 373.016C389.554 372.911 389.504 372.995 389.47 373.045C389.441 373.085 389.415 373.124 389.385 373.164C389.326 373.244 389.259 373.323 389.193 373.398C389.178 373.412 389.064 373.53 389.136 373.461C389.207 373.392 389.087 373.504 389.075 373.517C389.002 373.582 388.923 373.642 388.843 373.701C388.77 373.754 388.688 373.798 388.613 373.847C388.547 373.889 388.728 373.795 388.599 373.853C388.545 373.873 388.495 373.901 388.446 373.924C388.361 373.957 388.279 373.989 388.193 374.022C388.15 374.038 388.105 374.047 388.064 374.059C387.918 374.103 388.153 374.045 388.032 374.071C387.847 374.102 387.663 374.132 387.475 374.135C387.431 374.136 387.384 374.133 387.34 374.134C387.462 374.132 387.386 374.137 387.318 374.13C387.221 374.123 387.122 374.112 387.026 374.096C386.93 374.079 386.843 374.056 386.754 374.037C386.619 374.007 386.855 374.076 386.725 374.027C386.677 374.009 386.626 373.992 386.574 373.975C386.487 373.939 386.398 373.9 386.312 373.859C386.268 373.84 386.226 373.815 386.183 373.79C386.044 373.717 386.252 373.842 386.12 373.753C385.946 373.632 385.789 373.5 385.632 373.36C385.526 373.266 385.689 373.433 385.598 373.324C385.562 373.285 385.527 373.245 385.489 373.202C385.414 373.113 385.344 373.017 385.276 372.925C385.237 372.866 385.198 372.807 385.157 372.745C385.144 372.722 385.129 372.694 385.113 372.672C385.055 372.576 385.146 372.737 385.113 372.672C385.049 372.549 384.989 372.425 384.936 372.298C384.877 372.157 384.825 372.013 384.778 371.868C384.754 371.795 384.733 371.721 384.714 371.651C384.709 371.637 384.683 371.528 384.698 371.6C384.715 371.675 384.686 371.535 384.68 371.521C384.521 370.759 384.508 370.015 384.577 369.28C384.606 368.974 384.421 368.676 384.102 368.623C383.813 368.575 383.474 368.788 383.446 369.098C383.311 370.53 383.427 372.009 384.145 373.283C384.658 374.199 385.499 374.882 386.509 375.163C387.427 375.419 388.408 375.278 389.233 374.816C390.111 374.321 390.688 373.463 390.938 372.499C391.317 371.03 390.845 369.447 390.179 368.136L389.553 368.91C391.186 369.365 393.063 369.762 394.738 369.262C395.695 368.975 396.495 368.224 396.543 367.181C396.591 366.139 395.99 365.155 395.243 364.44C394.376 363.616 393.193 363.098 392.006 362.963C390.213 362.762 388.472 363.398 387.037 364.452L387.827 365.269C388.908 364.061 390.126 362.473 390.039 360.753C389.979 359.601 389.142 358.716 388.078 358.37C386.915 357.987 385.632 358.069 384.483 358.464C383.333 358.859 382.235 359.652 381.7 360.792C381.034 362.216 381.447 363.805 382.182 365.114C382.301 365.327 382.429 365.531 382.559 365.73L383.252 364.865C381.568 364.332 379.71 363.972 377.974 364.483C376.911 364.795 375.94 365.547 375.575 366.617C375.232 367.626 375.409 368.721 375.996 369.604C376.633 370.566 377.736 371.152 378.865 371.297C380.821 371.549 382.748 370.694 384.352 369.653C384.61 369.484 384.646 369.089 384.472 368.849C384.277 368.589 383.931 368.563 383.668 368.73L383.647 368.729Z" fill="white"/>
<path d="M384.359 368.09C384.66 368.159 384.959 368.223 385.263 368.269C385.495 368.307 385.729 368.331 385.963 368.343C386.184 368.352 386.404 368.361 386.622 368.33C386.738 368.314 386.851 368.287 386.962 368.256C387.015 368.244 387.068 368.224 387.117 368.201C387.183 368.171 387.25 368.133 387.314 368.096C387.335 368.088 387.35 368.074 387.369 368.058C387.422 368.017 387.472 367.965 387.522 367.913C387.533 367.901 387.548 367.887 387.558 367.87C387.599 367.818 387.634 367.759 387.664 367.699C387.674 367.682 387.679 367.664 387.686 367.649C387.712 367.569 387.742 367.488 387.747 367.404C387.751 367.321 387.757 367.229 387.741 367.145C387.722 367.054 387.702 366.959 387.669 366.874C387.633 366.781 387.584 366.697 387.534 366.61C387.508 366.563 387.479 366.521 387.451 366.479C387.384 366.381 387.31 366.295 387.229 366.212C387.106 366.084 386.979 365.957 386.84 365.842C386.734 365.756 386.623 365.672 386.509 365.598C386.354 365.494 386.19 365.397 386.025 365.31C385.905 365.245 385.782 365.19 385.653 365.142C385.49 365.082 385.322 365.028 385.149 364.993C384.989 364.96 384.825 364.95 384.662 364.951C384.609 364.951 384.557 364.955 384.508 364.966C384.408 364.984 384.31 365.005 384.216 365.037C384.122 365.07 384.036 365.123 383.953 365.172C383.869 365.221 383.804 365.295 383.735 365.362C383.699 365.397 383.67 365.437 383.644 365.475C383.588 365.563 383.535 365.649 383.498 365.745C383.434 365.917 383.395 366.092 383.386 366.271C383.379 366.401 383.377 366.533 383.386 366.664C383.394 366.759 383.406 366.853 383.421 366.945C383.448 367.099 383.481 367.25 383.52 367.403C383.549 367.478 383.589 367.54 383.646 367.592C383.694 367.651 383.751 367.694 383.823 367.72C383.893 367.754 383.964 367.768 384.036 367.764C384.113 367.772 384.188 367.763 384.261 367.731L384.397 367.658C384.476 367.599 384.537 367.522 384.578 367.428L384.619 367.29C384.637 367.188 384.623 367.088 384.586 366.991C384.584 366.988 384.583 366.984 384.581 366.981L384.619 367.13C384.569 366.916 384.53 366.698 384.519 366.48C384.517 366.432 384.517 366.379 384.518 366.329L384.514 366.478C384.516 366.387 384.529 366.293 384.548 366.203C384.551 366.181 384.559 366.158 384.566 366.135L384.525 366.273C384.544 366.205 384.576 366.139 384.609 366.077L384.534 366.2C384.564 366.152 384.596 366.107 384.639 366.07L384.532 366.173C384.57 366.133 384.619 366.102 384.666 366.076L384.53 366.149C384.588 366.118 384.649 366.095 384.712 366.078L384.563 366.116C384.63 366.098 384.701 366.091 384.774 366.091C384.795 366.091 384.816 366.092 384.836 366.092L384.687 366.088C384.807 366.091 384.925 366.111 385.043 366.139C385.078 366.146 385.111 366.158 385.148 366.168L385.01 366.127C385.111 366.158 385.212 366.196 385.31 366.237C385.407 366.277 385.514 366.33 385.612 366.382C385.669 366.413 385.726 366.445 385.779 366.477L385.656 366.402C385.768 366.469 385.874 366.543 385.977 366.618C386.08 366.693 386.175 366.771 386.265 366.855C386.316 366.901 386.363 366.948 386.409 366.995L386.306 366.888C386.355 366.939 386.405 366.993 386.449 367.046C386.489 367.096 386.53 367.149 386.568 367.204C386.588 367.234 386.603 367.265 386.622 367.29L386.549 367.155C386.578 367.209 386.605 367.268 386.623 367.326C386.629 367.341 386.634 367.355 386.638 367.374L386.6 367.225C386.61 367.27 386.616 367.317 386.617 367.362L386.62 367.213C386.621 367.246 386.613 367.277 386.604 367.309L386.645 367.171C386.635 367.199 386.626 367.227 386.61 367.25L386.685 367.126C386.667 367.154 386.649 367.181 386.625 367.203L386.732 367.1C386.7 367.133 386.66 367.157 386.624 367.179L386.759 367.106C386.705 367.135 386.648 367.157 386.592 367.171C386.574 367.178 386.555 367.181 386.532 367.186L386.681 367.148C386.532 367.186 386.377 367.197 386.225 367.198C386.172 367.198 386.119 367.198 386.064 367.194L386.213 367.198C386.032 367.195 385.852 367.174 385.672 367.153C385.448 367.125 385.22 367.086 384.998 367.041C384.851 367.012 384.704 366.979 384.556 366.946C384.48 366.93 384.404 366.935 384.331 366.958C384.255 366.972 384.183 366.999 384.122 367.052C384.057 367.097 384.009 367.153 383.977 367.218C383.935 367.279 383.908 367.347 383.896 367.421L383.892 367.57C383.904 367.676 383.94 367.769 384.002 367.856L384.105 367.963C384.183 368.027 384.271 368.063 384.372 368.081L384.359 368.09Z" fill="white"/>
</g>
</g>
<g clip-path="url(#clip9_206_1024)">
<path d="M71.3166 1135.61L159.782 1060.02L174.747 1053.53L253.4 1043.23L269.922 1032.76L276.554 1012.47L265.122 998.272L246.243 991.638L176.906 989.789L159.308 987.569L145.514 991.202L131.359 1005.38L122.377 1023.5L37.5986 1096.4L71.3166 1135.61Z" fill="#B47230"/>
<mask id="mask8_206_1024" style="mask-type:luminance" maskUnits="userSpaceOnUse" x="37" y="987" width="240" height="149">
<path d="M71.3166 1135.61L159.782 1060.02L174.747 1053.53L253.4 1043.23L269.922 1032.76L276.554 1012.47L265.122 998.272L246.243 991.638L176.906 989.789L159.308 987.569L145.514 991.202L131.359 1005.38L122.377 1023.5L37.5986 1096.4L71.3166 1135.61Z" fill="white"/>
</mask>
<g mask="url(#mask8_206_1024)">
<path d="M253.399 1043.23L234.212 1017.42L246.242 991.638L250.501 986.314L272.226 996.995L284.357 1019.06L271.051 1039.05L253.399 1043.23Z" fill="white"/>
<path d="M119.576 1022.01L161.516 1027.42L173.636 987.722L157.245 984.989L142.763 988.308L128.343 1002.94L119.576 1022.01Z" fill="white"/>
<path d="M218.877 1007.48L218.146 1007.69C218.092 1007.06 217.923 1006.42 217.286 1006.43C216.863 1006.44 216.635 1006.68 216.642 1007.13C216.65 1007.67 216.925 1007.94 217.304 1008.27L218.314 1009.13C218.717 1009.47 218.895 1009.84 218.907 1010.44C218.92 1011.31 218.391 1011.82 217.534 1011.83C216.588 1011.84 216.126 1011.36 216.018 1010.32L216.718 1010.12C216.769 1010.7 216.91 1011.2 217.525 1011.19C217.938 1011.18 218.174 1010.96 218.169 1010.53C218.163 1010.17 218.051 1009.96 217.768 1009.73L216.753 1008.86C216.3 1008.47 215.89 1007.95 215.878 1007.21C215.865 1006.33 216.451 1005.79 217.278 1005.78C218.314 1005.76 218.806 1006.46 218.877 1007.48Z" fill="white"/>
<path d="M215.349 1007.73L215.38 1009.98C215.397 1011.16 214.98 1011.87 213.779 1011.88C212.583 1011.9 212.149 1011.2 212.131 1010.03L212.098 1007.77C212.083 1006.61 212.495 1005.84 213.691 1005.83C214.887 1005.81 215.332 1006.55 215.346 1007.74L215.349 1007.73ZM212.93 1007.59L212.967 1010.19C212.977 1010.85 213.109 1011.25 213.765 1011.24C214.422 1011.23 214.552 1010.83 214.543 1010.16L214.506 1007.56C214.496 1006.9 214.366 1006.47 213.699 1006.48C213.032 1006.49 212.92 1006.92 212.93 1007.59Z" fill="white"/>
<path d="M211.394 1007.83L211.423 1009.93C211.441 1011.13 211.116 1011.92 209.852 1011.94C208.743 1011.96 208.346 1011.33 208.33 1010.25L208.324 1009.78L209.111 1009.77L209.117 1010.19C209.127 1010.85 209.147 1011.3 209.836 1011.29C210.524 1011.29 210.599 1010.8 210.589 1010.07L210.555 1007.71C210.541 1006.82 210.341 1006.53 209.769 1006.54C209.102 1006.54 209.071 1007.02 209.081 1007.73L209.085 1008.17L208.299 1008.18L208.294 1007.74C208.276 1006.64 208.598 1005.9 209.764 1005.88C211.028 1005.87 211.374 1006.73 211.391 1007.84L211.394 1007.83Z" fill="white"/>
<path d="M207.564 1011.92L206.734 1011.94L206.693 1009.13L205.37 1011.95L204.6 1011.97L205.735 1009.33L204.324 1006.03L205.129 1006.02L206.307 1008.79L206.679 1008.09L206.65 1006L207.48 1005.98L207.566 1011.93L207.564 1011.92Z" fill="white"/>
<path d="M203.932 1011.98L203.102 1011.99L203.026 1006.65L201.507 1006.67L201.5 1006.07L203.849 1006.04L203.935 1011.98L203.932 1011.98Z" fill="white"/>
<path d="M201.027 1012.02L198.722 1012.05L198.711 1011.43L200.184 1011.41L200.156 1009.45L198.96 1009.46L198.95 1008.88L200.146 1008.86L200.115 1006.68L198.626 1006.7L198.62 1006.11L200.938 1006.07L201.024 1012.01L201.027 1012.02Z" fill="white"/>
<path d="M198.155 1007.78L197.424 1007.99C197.369 1007.35 197.2 1006.72 196.563 1006.73C196.14 1006.73 195.913 1006.98 195.919 1007.43C195.928 1007.97 196.202 1008.24 196.582 1008.56L197.592 1009.43C197.994 1009.77 198.172 1010.14 198.184 1010.73C198.197 1011.6 197.669 1012.11 196.812 1012.13C195.865 1012.14 195.403 1011.65 195.295 1010.61L195.995 1010.41C196.046 1011 196.187 1011.5 196.803 1011.49C197.215 1011.48 197.451 1011.26 197.446 1010.82C197.441 1010.47 197.329 1010.26 197.046 1010.02L196.03 1009.16C195.577 1008.77 195.167 1008.25 195.155 1007.51C195.143 1006.63 195.728 1006.08 196.555 1006.07C197.591 1006.06 198.083 1006.75 198.155 1007.78Z" fill="white"/>
<path d="M194.735 1007.83L194.004 1008.04C193.949 1007.4 193.78 1006.77 193.143 1006.78C192.72 1006.78 192.493 1007.03 192.499 1007.48C192.508 1008.02 192.782 1008.29 193.162 1008.61L194.172 1009.48C194.574 1009.82 194.752 1010.19 194.764 1010.78C194.777 1011.65 194.249 1012.16 193.392 1012.17C192.445 1012.19 191.983 1011.7 191.875 1010.66L192.575 1010.46C192.626 1011.05 192.767 1011.55 193.383 1011.54C193.795 1011.53 194.031 1011.31 194.026 1010.87C194.021 1010.51 193.909 1010.31 193.626 1010.07L192.61 1009.21C192.158 1008.82 191.747 1008.3 191.735 1007.56C191.723 1006.68 192.308 1006.13 193.135 1006.12C194.171 1006.11 194.663 1006.8 194.735 1007.83Z" fill="white"/>
<path d="M218.658 1004.43L218.091 1004.44L216.347 1000.52L216.405 1004.46L215.713 1004.47L215.627 998.531L216.156 998.524L217.924 1002.56L217.867 998.499L218.572 998.487L218.658 1004.43Z" fill="white"/>
<path d="M214.838 1000.41L214.869 1002.66C214.886 1003.83 214.47 1004.54 213.269 1004.56C212.067 1004.57 211.638 1003.87 211.62 1002.71L211.587 1000.45C211.572 999.282 211.985 998.519 213.18 998.503C214.39 998.486 214.822 999.228 214.835 1000.41L214.838 1000.41ZM212.422 1000.26L212.459 1002.86C212.469 1003.52 212.601 1003.92 213.258 1003.91C213.914 1003.9 214.045 1003.5 214.035 1002.84L213.998 1000.23C213.988 999.572 213.858 999.145 213.191 999.154C212.524 999.164 212.413 999.597 212.422 1000.26Z" fill="white"/>
<path d="M209.06 1004.57L208.243 1004.58L207.126 999.775L206.139 1004.61L205.333 1004.62L205.139 998.683L205.806 998.674L205.933 1002.99L206.877 998.659L207.346 998.654L208.407 1002.95L208.412 998.64L209.087 998.628L209.062 1004.57L209.06 1004.57Z" fill="white"/>
<path d="M204.366 1000.56L204.397 1002.81C204.414 1003.98 203.997 1004.69 202.796 1004.71C201.595 1004.72 201.166 1004.02 201.148 1002.85L201.115 1000.6C201.1 999.43 201.512 998.667 202.708 998.651C203.904 998.636 204.349 999.376 204.363 1000.56L204.366 1000.56ZM201.95 1000.41L201.987 1003.01C201.996 1003.67 202.129 1004.07 202.785 1004.06C203.441 1004.05 203.572 1003.65 203.562 1002.98L203.525 1000.38C203.516 999.72 203.385 999.293 202.718 999.302C202.051 999.312 201.94 999.745 201.95 1000.41Z" fill="white"/>
<path d="M200.36 1004.69L199.164 1004.71C197.976 1004.73 197.411 1004.28 197.396 1003.15C197.386 1002.46 197.582 1001.94 198.11 1001.76L197.223 998.793L198.023 998.781L198.838 1001.56L199.483 1001.55L199.444 998.758L200.274 998.744L200.36 1004.69L200.36 1004.69ZM199.181 1002.15C198.484 1002.16 198.188 1002.38 198.198 1003.14C198.208 1003.84 198.401 1004.12 199.157 1004.11L199.526 1004.11L199.498 1002.14L199.184 1002.15L199.181 1002.15Z" fill="white"/>
<path d="M196.558 1004.75L194.253 1004.78L194.242 1004.16L195.715 1004.14L195.687 1002.17L194.491 1002.19L194.481 1001.6L195.677 1001.59L195.646 999.409L194.158 999.429L194.151 998.836L196.469 998.802L196.555 1004.74L196.558 1004.75Z" fill="white"/>
<path d="M34.017 1093.99L71.6602 1137.76L82.8031 1128.18L45.1599 1084.41L34.017 1093.99Z" fill="white"/>
</g>
</g>
<path d="M326.786 558.779L306.603 671.211L299.276 685.447L245.939 742.181L239.899 760.41L247.481 779.949L264.994 783.619L283.456 776.917L337.271 735.202L352.021 725.945L360.235 714.607L362.167 695.032L357.726 675.686L376.786 567.595L326.786 558.779Z" fill="#4142F4"/>
<mask id="mask9_206_1024" style="mask-type:luminance" maskUnits="userSpaceOnUse" x="239" y="558" width="138" height="226">
<path d="M326.786 558.779L306.603 671.211L299.276 685.447L245.939 742.181L239.899 760.41L247.481 779.949L264.994 783.619L283.456 776.917L337.271 735.202L352.021 725.945L360.235 714.607L362.167 695.032L357.726 675.686L376.786 567.595L326.786 558.779Z" fill="white"/>
</mask>
<g mask="url(#mask9_206_1024)">
<path d="M327.213 582.101L328.373 581.997C328.27 582.973 328.344 583.98 329.307 584.15C329.95 584.263 330.358 583.958 330.479 583.271C330.622 582.462 330.286 581.969 329.809 581.371L328.537 579.775C328.03 579.149 327.864 578.537 328.022 577.64C328.255 576.321 329.196 575.711 330.492 575.939C331.922 576.191 332.478 577.055 332.344 578.653L331.23 578.754C331.32 577.856 331.253 577.067 330.322 576.903C329.702 576.794 329.278 577.062 329.163 577.715C329.067 578.258 329.178 578.598 329.535 579.038L330.818 580.635C331.389 581.352 331.857 582.257 331.66 583.376C331.426 584.706 330.386 585.356 329.134 585.136C327.571 584.86 327.028 583.668 327.213 582.101Z" fill="white"/>
<path d="M332.601 582.743L333.201 579.341C333.514 577.569 334.344 576.618 336.161 576.939C337.978 577.259 338.42 578.445 338.109 580.207L337.507 583.619C337.197 585.381 336.353 586.409 334.547 586.09C332.741 585.772 332.287 584.526 332.601 582.743ZM336.198 583.662L336.891 579.729C337.067 578.732 336.986 578.09 335.989 577.914C334.992 577.738 334.685 578.312 334.509 579.309L333.816 583.242C333.64 584.239 333.713 584.926 334.721 585.104C335.729 585.282 336.022 584.659 336.198 583.662Z" fill="white"/>
<path d="M338.586 583.729L339.144 580.561C339.465 578.744 340.183 577.648 342.089 577.984C343.762 578.279 344.179 579.346 343.894 580.964L343.769 581.673L342.584 581.464L342.695 580.832C342.871 579.835 342.97 579.145 341.928 578.961C340.887 578.777 340.636 579.487 340.441 580.595L339.814 584.151C339.575 585.503 339.796 585.999 340.66 586.151C341.669 586.329 341.851 585.619 342.038 584.555L342.156 583.89L343.341 584.099L343.224 584.764C342.933 586.415 342.237 587.446 340.475 587.135C338.57 586.799 338.291 585.402 338.586 583.729Z" fill="white"/>
<path d="M345.531 578.671L346.783 578.892L346.037 583.124L348.844 579.255L350.007 579.46L347.537 583.103L348.713 588.485L347.494 588.27L346.519 583.757L345.76 584.697L345.201 587.866L343.949 587.645L345.531 578.671Z" fill="white"/>
<path d="M351.016 579.638L352.268 579.859L350.843 587.936L353.137 588.34L352.979 589.237L349.433 588.612L351.016 579.638Z" fill="white"/>
<path d="M355.414 580.414L358.893 581.027L358.729 581.958L356.502 581.565L355.978 584.534L357.784 584.853L357.628 585.739L355.822 585.42L355.242 588.711L357.491 589.108L357.333 590.005L353.832 589.388L355.414 580.414Z" fill="white"/>
<path d="M358.519 587.621L359.68 587.517C359.576 588.493 359.65 589.5 360.614 589.67C361.257 589.783 361.665 589.478 361.786 588.791C361.928 587.982 361.593 587.489 361.116 586.891L359.843 585.295C359.337 584.669 359.17 584.057 359.329 583.16C359.561 581.842 360.503 581.231 361.799 581.459C363.228 581.711 363.784 582.575 363.651 584.173L362.537 584.274C362.626 583.376 362.56 582.587 361.629 582.423C361.009 582.314 360.584 582.582 360.469 583.235C360.373 583.778 360.485 584.118 360.841 584.558L362.125 586.155C362.695 586.872 363.164 587.777 362.967 588.896C362.732 590.226 361.692 590.876 360.44 590.656C358.878 590.38 358.334 589.188 358.519 587.621Z" fill="white"/>
<path d="M363.681 588.531L364.842 588.428C364.739 589.403 364.812 590.41 365.776 590.58C366.419 590.693 366.827 590.388 366.948 589.701C367.09 588.893 366.755 588.399 366.278 587.801L365.005 586.206C364.499 585.58 364.333 584.968 364.491 584.07C364.723 582.752 365.665 582.141 366.961 582.37C368.39 582.622 368.946 583.485 368.813 585.084L367.699 585.184C367.788 584.286 367.722 583.498 366.791 583.334C366.171 583.224 365.747 583.492 365.631 584.146C365.536 584.689 365.647 585.028 366.004 585.468L367.287 587.065C367.857 587.783 368.326 588.688 368.129 589.807C367.894 591.136 366.854 591.787 365.602 591.566C364.04 591.291 363.497 590.098 363.681 588.531Z" fill="white"/>
<path d="M328.176 589.319L329.029 589.47L330.526 595.879L331.577 589.919L332.618 590.102L331.036 599.077L330.238 598.936L328.737 592.354L327.657 598.481L326.593 598.293L328.176 589.319Z" fill="white"/>
<path d="M332.773 596.481L333.373 593.08C333.686 591.307 334.516 590.357 336.333 590.677C338.15 590.998 338.592 592.184 338.281 593.945L337.679 597.358C337.369 599.119 336.525 600.147 334.719 599.829C332.913 599.51 332.459 598.265 332.773 596.481ZM336.369 597.401L337.063 593.468C337.239 592.471 337.158 591.828 336.161 591.652C335.164 591.476 334.857 592.051 334.681 593.048L333.987 596.981C333.812 597.978 333.885 598.665 334.893 598.843C335.901 599.02 336.194 598.398 336.369 597.401Z" fill="white"/>
<path d="M342.682 591.877L343.912 592.094L344.212 599.652L347.091 592.654L348.31 592.869L346.894 601.872L345.886 601.695L346.935 595.163L344.268 601.409L343.559 601.284L343.201 594.504L341.953 601.001L340.933 600.821L342.682 591.877Z" fill="white"/>
<path d="M348.594 599.271L349.193 595.869C349.506 594.097 350.336 593.147 352.153 593.467C353.97 593.787 354.412 594.973 354.101 596.735L353.5 600.147C353.189 601.909 352.345 602.937 350.539 602.618C348.733 602.3 348.279 601.054 348.594 599.271ZM352.19 600.19L352.883 596.257C353.059 595.26 352.978 594.618 351.981 594.442C350.984 594.266 350.677 594.84 350.501 595.837L349.808 599.77C349.632 600.768 349.705 601.454 350.713 601.632C351.721 601.81 352.014 601.188 352.19 600.19Z" fill="white"/>
<path d="M355.818 594.193L357.624 594.512C359.419 594.828 360.142 595.652 359.841 597.358C359.655 598.411 359.209 599.132 358.364 599.257L358.845 603.98L357.637 603.767L357.205 599.35L356.23 599.178L355.488 603.388L354.236 603.167L355.818 594.193ZM356.865 598.364C357.917 598.55 358.43 598.298 358.633 597.146C358.819 596.093 358.607 595.61 357.466 595.409L356.912 595.311L356.389 598.28L356.865 598.364Z" fill="white"/>
<path d="M361.568 595.207L365.047 595.82L364.883 596.751L362.656 596.358L362.133 599.328L363.939 599.646L363.782 600.532L361.976 600.214L361.396 603.504L363.645 603.901L363.487 604.798L359.986 604.181L361.568 595.207Z" fill="white"/>
<path d="M247.887 745.346L274.828 751.391L281.211 773.845" stroke="white" stroke-width="0.75" stroke-miterlimit="10" stroke-linecap="round"/>
<path d="M355.745 681.308L332.283 694.622L340.439 727.189" stroke="white" stroke-width="0.75" stroke-miterlimit="10" stroke-linecap="round"/>
<path d="M325.371 604.102L310.178 685.946L258.177 742.271" stroke="white" stroke-width="0.75" stroke-miterlimit="10" stroke-linecap="round"/>
<path d="M332.771 606.122L317.37 693.462L269.88 744.335" stroke="white" stroke-width="0.75" stroke-miterlimit="10" stroke-linecap="round"/>
<path d="M339.859 606.656L325.12 697.414L278.505 748.441" stroke="white" stroke-width="0.75" stroke-miterlimit="10" stroke-linecap="round"/>
<path d="M347.385 607.983L333.851 684.735" stroke="white" stroke-width="0.75" stroke-miterlimit="10" stroke-linecap="round"/>
<path d="M354.648 609.98L342.49 678.933" stroke="white" stroke-width="0.75" stroke-miterlimit="10" stroke-linecap="round"/>
<path d="M359.373 610.045L348.001 674.54" stroke="white" stroke-width="0.75" stroke-miterlimit="10" stroke-linecap="round"/>
</g>
<defs>
<clipPath id="clip0_206_1024">
<rect width="122.116" height="242.716" fill="white" transform="matrix(-0.0856102 0.996329 0.996329 0.0856102 221.895 162.986)"/>
</clipPath>
<clipPath id="clip1_206_1024">
<rect width="118.946" height="243.511" fill="white" transform="translate(136.844 254.285) rotate(30)"/>
</clipPath>
<clipPath id="clip2_206_1024">
<rect width="190.305" height="243.511" fill="white" transform="matrix(-0.80326 0.595628 0.595628 0.80326 477.379 419.695)"/>
</clipPath>
<clipPath id="clip3_206_1024">
<rect width="118.946" height="243.511" fill="white" transform="translate(504.291 1115.2) rotate(-167.18)"/>
</clipPath>
<clipPath id="clip4_206_1024">
<rect width="112.62" height="236.497" fill="white" transform="translate(261.188 753.599) rotate(119.818)"/>
</clipPath>
<clipPath id="clip5_206_1024">
<rect width="112.62" height="236.497" fill="white" transform="translate(142.145 975.177) rotate(-78.8392)"/>
</clipPath>
<clipPath id="clip6_206_1024">
<rect width="122.116" height="252.335" fill="white" transform="matrix(-0.315512 -0.948922 -0.948922 0.315512 602.49 798.014)"/>
</clipPath>
<clipPath id="clip7_206_1024">
<rect width="122.93" height="245.398" fill="white" transform="matrix(0.714433 0.699703 0.699703 -0.714433 68.1875 574.005)"/>
</clipPath>
<clipPath id="clip8_206_1024">
<rect width="112.62" height="236.497" fill="white" transform="translate(350.568 474.719) rotate(-111.115)"/>
</clipPath>
<clipPath id="clip9_206_1024">
<rect width="122.116" height="243.855" fill="white" transform="translate(107.617 1179.58) rotate(-130.691)"/>
</clipPath>
</defs>
</svg>
